<svg xmlns="http://www.w3.org/2000/svg" width="2000" height="18"><path fill="#FFF" d="M-24 0v10l8 8 8-8 8 8 8-8 8 8 8-8 8 8 8-8 8 8 8-8 8 8 8-8 8 8 8-8 8 8 8-8 8 8 8-8 8 8 8-8 8 8 8-8 8 8 8-8 8 8 8-8 8 8 8-8 8 8 8-8 8 8 8-8 8 8 8-8 8 8 8-8 8 8 8-8 8 8 8-8 8 8 8-8 8 8 8-8 8 8 8-8 8 8 8-8 8 8 8-8 8 8 8-8 8 8 8-8 8 8 8-8 8 8 8-8 8 8 8-8 8 8 8-8 8 8 8-8 8 8 8-8 8 8 8-8 8 8 8-8 8 8 8-8 8 8 8-8 8 8 8-8 8 8 8-8 8 8 8-8 8 8 8-8 8 8 8-8 8 8 8-8 8 8 8-8 8 8 8-8 8 8 8-8 8 8 8-8 8 8 8-8 8 8 8-8 8 8 8-8 8 8 8-8 8 8 8-8 8 8 8-8 8 8 8-8 8 8 8-8 8 8 8-8 8 8 8-8 8 8 8-8 8 8 8-8 8 8 8-8 8 8 8-8 8 8 8-8 8 8 8-8 8 8 8-8 8 8 8-8 8 8 8-8 8 8 8-8 8 8 8-8 8 8 8-8 8 8 8-8 8 8 8-8 8 8 8-8 8 8 8-8 8 8 8-8 8 8 8-8 8 8 8-8 8 8 8-8 8 8 8-8 8 8 8-8 8 8 8-8 8 8 8-8 8 8 8-8 8 8 8-8 8 8 8-8 8 8 8-8 8 8 8-8 8 8 8-8 8 8 8-8 8 8 8-8 8 8 8-8 8 8 8-8 8 8 8-8 8 8 8-8 8 8 8-8 8 8 8-8 8 8 8-8 8 8 8-8 8 8 8-8 8 8 8-8 8 8 8-8 8 8 8-8 8 8 8-8 8 8 8-8 8 8 8-8 8 8 8-8 8 8 8-8 8 8 8-8 8 8 8-8 8 8 8-8 8 8 8-8 8 8 8-8 8 8 8-8 8 8 8-8 8 8 8-8 8 8 8-8 8 8 8-8 8 8 8-8 8 8 8-8 8 8 8-8 8 8 8-8 8 8 8-8 8 8 8-8 8 8 8-8 8 8 8-8 8 8 8-8 8 8 8-8 8 8 8-8 8 8 8-8V0H-24z"/></svg>