<?xml version="1.0" encoding="utf-8"?><svg xmlns:xlink="http://www.w3.org/1999/xlink" id="svg_logo_b" image-rendering="auto" baseProfile="basic" version="1.1" x="0px" y="0px" width="96" height="106" xmlns="http://www.w3.org/2000/svg"><defs><symbol id="Symbol_4" overflow="visible"><path fill="#FFF" d="M3.35,-5.45Q2.8,-5.85 1.65,-6.2 1.15,-6.35 0.4,-6.4 -0.15,-6.45 -0.9,-6.45L-4.3,-6.45Q-5,-6.45 -5,-5.75L-5,5.75Q-5,6.5 -4.3,6.5L-3.05,6.5Q-2.35,6.5 -2.35,5.75L-2.35,2.45Q-2.35,1.75 -1.65,1.75L-0.95,1.75Q-0.25,1.75 0.1,2.4L1.9,5.85Q2,6.1 2.35,6.3 2.65,6.5 2.9,6.5L4.35,6.5Q5.05,6.5 5.05,6.4L2.25,1.05Q3.4,0.55 4,-0.35 4.6,-1.25 4.6,-2.55 4.6,-4.35 3.35,-5.45 M1.9,-2.35Q1.9,-1.4 1.35,-0.9 1.15,-0.7 0.8,-0.6L0.5,-0.5 -1.65,-0.4Q-2.35,-0.4 -2.35,-1.15L-2.35,-3.6Q-2.35,-4.3 -1.65,-4.3L-0.2,-4.3Q0.85,-4.3 1.4,-3.75 1.9,-3.25 1.9,-2.35"/>
</symbol><symbol id="Symbol_5" overflow="visible"><path fill="#FFF" d="M3.45,-0.5Q3.45,-1.2 2.75,-1.2L-0.95,-1.2Q-1.65,-1.2 -1.65,-1.95L-1.65,-3.6Q-1.65,-4.3 -0.95,-4.3L3.6,-4.3Q4.35,-4.3 4.35,-5L4.35,-5.75Q4.35,-6.45 3.6,-6.45L-3.6,-6.45Q-4.3,-6.45 -4.3,-5.75L-4.3,5.75Q-4.3,6.5 -3.6,6.5L3.65,6.5Q4.35,6.5 4.35,5.75L4.35,5.05Q4.35,4.35 3.65,4.35L-0.95,4.35Q-1.65,4.35 -1.65,3.65L-1.65,1.6Q-1.65,0.9 -0.95,0.9L2.75,0.9Q3.45,0.9 3.45,0.15L3.45,-0.5"/>
</symbol><symbol id="d" overflow="visible"><path fill="#FFF" d="M4.2,-3.5Q3.5,-4.95 2.1,-5.7 1.55,-6 0.6,-6.2L-0.25,-6.35 -4.2,-6.45Q-4.95,-6.45 -4.95,-5.75L-4.95,5.75Q-4.95,6.05 -4.7,6.3 -4.5,6.5 -4.2,6.5L-0.9,6.5Q0.7,6.5 2.15,5.7 3.55,4.9 4.2,3.55 4.5,2.95 4.75,1.95L4.9,1.05 4.95,-0.3Q4.95,-2.05 4.2,-3.5 M2.2,-1L2.25,0.4Q2.25,2.3 1.4,3.3 0.85,4 -0.25,4.2 -0.85,4.35 -1.6,4.35 -2.25,4.35 -2.25,3.65L-2.25,-3.6Q-2.25,-4.3 -1.55,-4.3L-0.95,-4.3Q0.6,-4.3 1.45,-3.3 2,-2.6 2.2,-1"/>
</symbol><symbol id="i" overflow="visible"><path fill="#FFF" d="M1.35,-5.75Q1.35,-6.45 0.65,-6.45L-0.6,-6.45Q-1.3,-6.45 -1.3,-5.75L-1.3,5.75Q-1.3,6.5 -0.6,6.5L0.65,6.5Q1.35,6.5 1.35,5.75L1.35,-5.75"/>
</symbol><symbol id="Symbol_6" overflow="visible"><path fill="#FFF" d="M5.15,-6.45L3.6,-6.45Q2.9,-6.45 2.7,-5.75L0.2,2.6Q0,3.15 -0.25,2.6L-2.75,-5.75Q-2.9,-6.45 -3.65,-6.45L-5.2,-6.45Q-5.5,-6.45 -5.65,-6.25 -5.75,-6.05 -5.65,-5.8L-1.65,5.8Q-1.4,6.5 -0.7,6.5L0.65,6.5Q1.35,6.5 1.6,5.8L5.65,-5.8Q5.85,-6.45 5.15,-6.45"/>
</symbol><symbol id="Symbol_7" overflow="visible"><path fill="none" stroke="#FFF" stroke-width="2.6" stroke-linecap="round" stroke-linejoin="round" d="M21.7,3.5L7.25,-3.45 -7.25,3.5 -21.75,-3.45 -36.2,3.5M21.7,3.5L36.2,-3.45"/>
</symbol><symbol id="Symbol_8" overflow="visible"><path fill="none" stroke="#FFF" stroke-width="2.6" stroke-linecap="round" stroke-linejoin="round" d="M21.95,3.5L7.5,-3.45 -7,3.5 -21.5,-3.45 -35.95,3.5M21.95,3.5L36,-3.2"/>
</symbol><symbol id="Symbol_9" overflow="visible"><path fill="none" stroke="#FFF" stroke-width="2.6" stroke-linecap="round" stroke-linejoin="round" d="M22.5,3.5L8.05,-3.45 -6.45,3.5 -20.95,-3.45 -35.4,3.5M22.5,3.5L35.45,-2.7"/>
</symbol><symbol id="Symbol_10" overflow="visible"><path fill="none" stroke="#FFF" stroke-width="2.6" stroke-linecap="round" stroke-linejoin="round" d="M23.35,3.5L8.9,-3.45 -5.6,3.5 -20.1,-3.45 -34.55,3.5M23.35,3.5L34.55,-1.85"/>
</symbol><symbol id="Symbol_11" overflow="visible"><path fill="none" stroke="#FFF" stroke-width="2.6" stroke-linecap="round" stroke-linejoin="round" d="M24.65,3.5L10.2,-3.45 -4.3,3.5 -18.8,-3.45 -33.25,3.5M24.65,3.5L33.3,-0.65"/>
</symbol><symbol id="Symbol_12" overflow="visible"><path fill="none" stroke="#FFF" stroke-width="2.6" stroke-linecap="round" stroke-linejoin="round" d="M31.6,0.95L26.3,3.5 11.85,-3.45 -2.65,3.5 -17.15,-3.45 -31.6,3.5"/>
</symbol><symbol id="Symbol_13" overflow="visible"><path fill="none" stroke="#FFF" stroke-width="2.6" stroke-linecap="round" stroke-linejoin="round" d="M29.65,2.85L28.3,3.5 13.85,-3.45 -0.65,3.5 -15.15,-3.45 -29.6,3.5"/>
</symbol><symbol id="Symbol_14" overflow="visible"><path fill="none" stroke="#FFF" stroke-width="2.6" stroke-linecap="round" stroke-linejoin="round" d="M16.25,-3.45L1.75,3.5 -12.75,-3.45 -27.2,3.5M16.25,-3.45L27.25,1.85"/>
</symbol><symbol id="Symbol_15" overflow="visible"><path fill="none" stroke="#FFF" stroke-width="2.6" stroke-linecap="round" stroke-linejoin="round" d="M24.55,-0.75L18.95,-3.45 4.45,3.5 -10.05,-3.45 -24.5,3.5"/>
</symbol><symbol id="Symbol_16" overflow="visible"><path fill="none" stroke="#FFF" stroke-width="2.6" stroke-linecap="round" stroke-linejoin="round" d="M21.5,-3.2L7.5,3.5 -7,-3.45 -21.45,3.5"/>
</symbol><symbol id="Symbol_17" overflow="visible"><path fill="none" stroke="#FFF" stroke-width="2.6" stroke-linecap="round" stroke-linejoin="round" d="M18,0.15L11,3.5 -3.5,-3.45 -17.95,3.5"/>
</symbol><symbol id="Symbol_18" overflow="visible"><path fill="none" stroke="#FFF" stroke-width="2.6" stroke-linecap="round" stroke-linejoin="round" d="M14.2,3.25L0.3,-3.45 -14.15,3.5"/>
</symbol><symbol id="Symbol_19" overflow="visible"><path fill="none" stroke="#FFF" stroke-width="2.6" stroke-linecap="round" stroke-linejoin="round" d="M10,-0.8L4.45,-3.45 -10,3.5"/>
</symbol><symbol id="Symbol_20" overflow="visible"><path fill="none" stroke="#FFF" stroke-width="2.6" stroke-linecap="round" stroke-linejoin="round" d="M5.5,-2.6L-5.45,2.65"/>
</symbol><symbol id="Symbol_21" overflow="visible"><path fill="none" stroke="#FFF" stroke-width="2.6" stroke-linecap="round" stroke-linejoin="round" d="M0.55,-0.25L-0.55,0.25"/>
</symbol><symbol id="svg_0.35" overflow="visible"><path fill="#F8C52E" d="M25.95,-19Q18.1,-19 12.5,-13.4 6.95,-7.85 6.95,0 6.95,7.9 12.5,13.45 18.1,19 25.95,19 33.85,19 39.4,13.45 45,7.85 45,0L25.95,0 25.95,-19"/>
</symbol><symbol id="svg_1.23" overflow="visible"><path fill="#420F5E" d="M0.601,0.051Q0.601,-7.649 -4.799,-13.199 -10.199,-18.699 -17.899,-18.899L-6.949,0.051 0.601,0.051"/>
</symbol><symbol id="svg_2.25" overflow="visible"><path fill="#C40066" d="M4,19L25.9,-18.8 -17.85,-18.8 4,19"/>
</symbol><symbol id="svg_3.23" overflow="visible"><path fill="#43AFC1" d="M-18.5,-19Q-26.4,-19 -31.95,-13.45 -37.55,-7.85 -37.55,0L-45,0Q-45,7.9 -39.45,13.45 -33.85,19 -26,19 -18.1,19 -12.55,13.45 -6.95,7.85 -6.95,0L0.5,0Q0.5,-7.9 -5.05,-13.45 -10.65,-19 -18.5,-19"/>
</symbol><symbol id="svg_f35_d299" overflow="visible"><use xlink:href="#svg_3.23"/><use xlink:href="#svg_2.25"/><use xlink:href="#svg_1.23"/><use xlink:href="#svg_0.35"/>
</symbol><symbol id="svg_f34_d299" overflow="visible"><use xlink:href="#svg_3.23"/><use xlink:href="#svg_2.25"/><use xlink:href="#svg_1.23"/><path fill="#F8C52E" d="M25.55,-19Q17.7,-18.85 12.2,-13.1 6.8,-7.45 6.95,0.4 7.1,8.3 12.8,13.75 18.5,19.15 26.35,19 34.25,18.85 39.7,13.15 45,7.6 45,0L25.95,0 25.55,-19"/>
</symbol><symbol id="svg_f33_d299" overflow="visible"><use xlink:href="#svg_3.23"/><use xlink:href="#svg_2.25"/><use xlink:href="#svg_1.23"/><path fill="#F8C52E" d="M24.3,-18.9Q16.5,-18.2 11.35,-12.15 6.35,-6.15 7.05,1.65 7.75,9.5 13.75,14.6 19.8,19.6 27.6,18.9 35.45,18.2 40.55,12.2 45.05,6.75 45,0L25.95,0 24.3,-18.9"/>
</symbol><symbol id="svg_f32_d299" overflow="visible"><use xlink:href="#svg_3.23"/><use xlink:href="#svg_2.25"/><use xlink:href="#svg_1.23"/><path fill="#F8C52E" d="M22.15,-18.6Q14.45,-17.05 10.1,-10.4 5.8,-3.9 7.35,3.8 8.95,11.55 15.5,15.85 22.05,20.15 29.75,18.6 37.5,17 41.8,10.45 45.05,5.55 45,0L25.95,0 22.15,-18.6"/>
</symbol><symbol id="svg_f31_d299" overflow="visible"><use xlink:href="#svg_3.23"/><use xlink:href="#svg_2.25"/><use xlink:href="#svg_1.23"/><path fill="#F8C52E" d="M19.2,-17.75Q11.85,-14.95 8.65,-7.75 5.4,-0.6 8.2,6.75 11,14.15 18.15,17.3 25.35,20.55 32.7,17.75 40.1,14.95 43.25,7.8 45.05,3.9 45.05,0L25.95,0 19.2,-17.75"/>
</symbol><symbol id="svg_f30_d299" overflow="visible"><use xlink:href="#svg_3.23"/><use xlink:href="#svg_2.25"/><use xlink:href="#svg_1.23"/><path fill="#F8C52E" d="M15.75,-16Q9.15,-11.8 7.45,-4 5.75,3.6 9.95,10.2 14.2,16.85 21.9,18.55 29.55,20.2 36.15,16 42.8,11.75 44.5,4.05 44.95,2 45,0L25.95,0 15.75,-16"/>
</symbol><symbol id="svg_f29_d299" overflow="visible"><use xlink:href="#svg_3.23"/><use xlink:href="#svg_2.25"/><use xlink:href="#svg_1.23"/><path fill="#F8C52E" d="M13,13.85Q18.75,19.25 26.6,18.95 34.45,18.65 39.8,12.95 45,7.45 44.95,0L25.95,0 12.1,-12.95Q6.75,-7.25 7.05,0.65 7.3,8.5 13,13.85"/>
</symbol><symbol id="svg_f28_d299" overflow="visible"><use xlink:href="#svg_3.23"/><use xlink:href="#svg_2.25"/><use xlink:href="#svg_1.23"/><path fill="#F8C52E" d="M43,8.35Q45,4.25 45,0L25.95,0 8.9,-8.35Q5.45,-1.3 8.05,6.15 10.55,13.6 17.6,17.05 24.7,20.5 32.1,17.95 39.55,15.4 43,8.35"/>
</symbol><symbol id="svg_f27_d299" overflow="visible"><use xlink:href="#svg_3.23"/><use xlink:href="#svg_2.25"/><use xlink:href="#svg_1.23"/><path fill="#F8C52E" d="M44.8,2.15Q44.95,1.05 44.95,0L25.95,0 7.1,-2.15Q6.2,5.65 11.1,11.8 16,17.95 23.8,18.85 31.65,19.75 37.75,14.9 43.9,9.95 44.8,2.15"/>
</symbol><symbol id="svg_f26_d299" overflow="visible"><use xlink:href="#svg_3.23"/><use xlink:href="#svg_2.25"/><use xlink:href="#svg_1.23"/><path fill="#F8C52E" d="M42.45,9.4Q45,4.85 44.95,0L25.95,0 7.65,5Q9.7,12.55 16.6,16.5 23.4,20.35 30.95,18.3 38.55,16.2 42.45,9.4"/>
</symbol><symbol id="svg_f25_d299" overflow="visible"><use xlink:href="#svg_3.23"/><use xlink:href="#svg_2.25"/><use xlink:href="#svg_1.23"/><path fill="#F8C52E" d="M44.85,1.6Q44.9,0.8 44.95,0L25.95,0 11.45,12.2Q16.5,18.2 24.35,18.85 32.15,19.55 38.15,14.5 44.2,9.4 44.85,1.6"/>
</symbol><symbol id="svg_f24_d299" overflow="visible"><use xlink:href="#svg_3.23"/><path fill="#C40066" d="M3.9,18.95L19,-18.8 -17.9,-18.8 3.9,18.95"/><use xlink:href="#svg_1.23"/><path fill="#F8C52E" d="M43.6,6.95Q45,3.45 45,0L25.95,0 19,17.65Q26.3,20.55 33.55,17.4 40.7,14.25 43.6,6.95"/>
</symbol><symbol id="svg_f23_d299" overflow="visible"><use xlink:href="#svg_3.23"/><path fill="#C40066" d="M3.9,18.85L13.45,-18.8 -17.85,-18.8 3.9,18.85"/><use xlink:href="#svg_1.23"/><path fill="#F8C52E" d="M25.95,0L27.05,18.95Q34.9,18.5 40.1,12.6 45,7.15 44.95,0L25.95,0"/>
</symbol><symbol id="svg_f22_d299" overflow="visible"><path fill="#43AFC1" d="M-12.9,-18.15Q-20.4,-20.45 -27.35,-16.75 -34.35,-13.1 -36.65,-5.6 -37.55,-2.75 -37.6,0L-45,0Q-45,7.9 -39.45,13.45 -33.85,19 -26,19 -18.1,19 -12.55,13.45 -6.95,7.85 -6.95,0L-18.5,0 -1.75,-8.85Q-5.45,-15.85 -12.9,-18.15"/><path fill="#C40066" d="M3.95,18.9L8.75,-18.8 -17.85,-18.8 3.95,18.9"/><path fill="#420F5E" d="M-9.725,-4.7L-1.65,-8.925Q-2.889,-11.235 -4.85,-13.25 -10.25,-18.75 -17.95,-18.95L-9.725,-4.7"/><path fill="#F8C52E" d="M43.75,6.4Q44.95,3.2 45,0L25.95,0 34,17.2Q41.1,13.9 43.75,6.4"/>
</symbol><symbol id="svg_f21_d299" overflow="visible"><path fill="#43AFC1" d="M-21.3,-18.8Q-29.1,-17.65 -33.75,-11.35 -37.6,-6.15 -37.55,0L-45,0Q-45,7.9 -39.45,13.45 -33.85,19 -26,19 -18.1,19 -12.55,13.45 -6.95,7.85 -6.95,0L-18.55,0 -7.2,-15.25Q-13.55,-19.95 -21.3,-18.8"/><path fill="#C40066" d="M3.8,18.85L3.95,18.9 4.4,-18.8 -17.95,-18.8 3.8,18.85"/><path fill="#420F5E" d="M-12.05,-8.75L-7.175,-15.3Q-11.834,-18.791 -17.95,-18.95L-12.05,-8.75"/><path fill="#F8C52E" d="M44.9,0.5Q44.9,0.25 44.9,0L25.95,0 38.95,13.8Q44.65,8.4 44.9,0.5"/>
</symbol><symbol id="svg_f20_d299" overflow="visible"><path fill="#43AFC1" d="M-16.05,-18.55Q-23.75,-20.35 -30.45,-16.25 -37.15,-12.05 -38.95,-4.4 -39.45,-2.15 -39.5,0L-45,0Q-45,7.9 -39.45,13.45 -33.85,19 -26,19 -18.1,19 -12.55,13.45 -6.95,7.85 -6.95,0L-20.45,0 -16.05,-18.55"/><path fill="#C40066" d="M3.85,18.95L0.5,-18.8 -17.95,-18.8 3.85,18.95"/><path fill="#420F5E" d="M-16.025,-18.8Q-16.969,-18.925 -17.95,-18.95L-16.55,-16.55 -16.025,-18.8"/><path fill="#F8C52E" d="M42.1,9.95Q45,5.2 44.95,0L25.95,0 42.1,9.95"/>
</symbol><symbol id="svg_f19_d299" overflow="visible"><path fill="#43AFC1" d="M-24.45,-18.85Q-32.3,-17.9 -37.1,-11.7 -41.15,-6.4 -41.1,0L-45,0Q-45,7.9 -39.45,13.45 -33.85,19 -26,19 -18.1,19 -12.55,13.45 -6.95,7.85 -6.95,0L-22.1,0 -24.45,-18.85"/><path fill="#C40066" d="M-2.95,-18.8L-17.9,-18.8 3.9,18.9 -2.95,-18.8"/><path fill="#F8C52E" d="M43.8,6.45Q44.95,3.2 45,0L25.95,0 43.8,6.45"/>
</symbol><symbol id="svg_f18_d299" overflow="visible"><path fill="#43AFC1" d="M-31.7,-17.2Q-38.85,-13.8 -41.45,-6.45 -42.6,-3.2 -42.6,0L-45,0Q-45,7.9 -39.45,13.45 -33.85,19 -26,19 -18.1,19 -12.55,13.45 -6.95,7.85 -6.95,0L-23.6,0 -31.7,-17.2"/><path fill="#C40066" d="M-6.1,-18.8L-17.9,-18.8 3.9,18.95 -6.1,-18.8"/><path fill="#F8C52E" d="M44.55,3.8Q44.95,1.85 44.95,0L25.95,0 44.55,3.8"/>
</symbol><symbol id="svg_f17_d299" overflow="visible"><path fill="#43AFC1" d="M-37.4,-14.25Q-43.3,-9.05 -43.85,-1.2 -43.9,-0.6 -43.9,0L-45,0Q-45,7.9 -39.45,13.45 -33.85,19 -26,19 -18.1,19 -12.55,13.45 -6.95,7.85 -6.95,0L-24.9,0 -37.4,-14.25"/><path fill="#C40066" d="M-9,-18.8L-18.05,-18.8 3.75,18.9 3.9,18.9 -9,-18.8"/><path fill="#F8C52E" d="M44.8,2.15Q44.95,1.05 44.95,0L25.95,0 44.8,2.15"/>
</symbol><symbol id="svg_f16_d299" overflow="visible"><path fill="#43AFC1" d="M-6.9,0L-26,0 -42.75,8.85Q-39.05,15.85 -31.6,18.15 -24.1,20.45 -17.15,16.75 -10.15,13.1 -7.85,5.6 -6.95,2.75 -6.9,0"/><path fill="#43AFC1" d="M-45.05,0L-26.1,0 -41.5,-10.95Q-45.1,-5.85 -45.05,0"/><path fill="#C40066" d="M-11.7,-18.8L-18,-18.8 3.8,18.85 -11.7,-18.8"/><path fill="#C40066" d="M3.5,19L3.85,19.05 3.85,19 3.5,19"/><path fill="#F8C52E" d="M44.9,1.65Q45,0.8 45,0L25.95,0 44.9,1.65"/>
</symbol><symbol id="svg_f15_d299" overflow="visible"><path fill="#43AFC1" d="M-6.95,0L-25.95,0 -37.3,15.25Q-30.95,19.95 -23.2,18.8 -15.4,17.65 -10.75,11.35 -6.9,6.15 -6.95,0"/><path fill="#43AFC1" d="M-45.95,0L-26.85,0 -44.2,-7.85Q-45.95,-3.95 -45.95,0"/><path fill="#C40066" d="M-13.85,-18.8L-17.95,-18.8 3.85,18.95 -13.85,-18.8"/>
</symbol><symbol id="svg_f14_d299" overflow="visible"><path fill="#43AFC1" d="M-6.9,0L-25.95,0 -30.35,18.55Q-22.65,20.35 -15.95,16.25 -9.25,12.05 -7.45,4.4 -6.95,2.15 -6.9,0"/><path fill="#43AFC1" d="M-46.65,0L-27.5,0 -45.85,-5.2Q-46.6,-2.55 -46.65,0"/><path fill="#C40066" d="M-15.5,-18.8L-17.95,-18.8 3.9,19 -15.5,-18.8"/>
</symbol><symbol id="svg_f13_d299" overflow="visible"><path fill="#43AFC1" d="M-4.9,0L-23.9,0 -21.55,18.85Q-13.7,17.9 -8.9,11.7 -4.85,6.4 -4.9,0"/><path fill="#43AFC1" d="M-47.1,0L-28.1,0 -46.8,-3.25Q-47.1,-1.6 -47.1,0"/><path fill="#C40066" d="M-16.95,-18.8L-17.95,-18.8 3.85,18.95 -16.95,-18.8"/>
</symbol><symbol id="svg_f12_d299" overflow="visible"><path fill="#43AFC1" d="M-22.05,0L-13.95,17.2Q-6.8,13.8 -4.2,6.45 -3.05,3.2 -3.05,0L-22.05,0"/><path fill="#43AFC1" d="M-47.5,0L-28.45,0 -47.35,-2Q-47.45,-1 -47.5,0"/><path fill="#C40066" d="M-17.95,-18.8L-9.6,-4.55 -17.6,-18.8 -17.95,-18.8"/>
</symbol><symbol id="svg_f11_d299" overflow="visible"><path fill="#43AFC1" d="M-20.45,0L-7.95,14.25Q-2.05,9.05 -1.5,1.2 -1.45,0.6 -1.45,0L-20.45,0"/><path fill="#43AFC1" d="M-47.55,0L-28.5,0 -47.45,-1.65Q-47.5,-0.8 -47.55,0"/>
</symbol><symbol id="svg_f10_d299" overflow="visible"><path fill="#43AFC1" d="M-19,0L-3.6,10.95Q0,5.85 -0.05,0L-19,0"/>
</symbol><symbol id="svg_f9_d299" overflow="visible"><path fill="#43AFC1" d="M-18.05,0L-0.7,7.85Q1.05,3.95 1.05,0L-18.05,0"/>
</symbol><symbol id="svg_f8_d299" overflow="visible"><path fill="#43AFC1" d="M1.15,5.2Q1.9,2.55 1.95,0L-17.2,0 1.15,5.2"/>
</symbol><symbol id="svg_f7_d299" overflow="visible"><path fill="#43AFC1" d="M2.2,3.25Q2.5,1.6 2.5,0L-16.5,0 2.2,3.25"/>
</symbol><symbol id="svg_f6_d299" overflow="visible"><path fill="#43AFC1" d="M2.85,2Q2.95,1 3,0L-16.05,0 2.85,2"/>
</symbol><symbol id="svg_f5_d299" overflow="visible"><path fill="#43AFC1" d="M2.95,1.65Q3,0.8 3.05,0L-16,0 2.95,1.65"/>
</symbol></defs><g id="Scene_1" overflow="visible"><g style="display:none;"><g id="svg_f36_d299" transform="matrix(1 0 0 1 47.95 33)"><use xlink:href="#svg_3.23"/><use xlink:href="#svg_2.25"/><use xlink:href="#svg_1.23"/><use xlink:href="#svg_0.35"/></g><animate attributeName="display" repeatCount="indefinite" dur="12.458s" keyTimes="0;0.12;0.886;1" values="none;inline;none;none"/></g><g style="display:none;"><use xlink:href="#svg_f35_d299" transform="matrix(1 0 0 1 47.95 33)"/><animate attributeName="display" repeatCount="indefinite" dur="12.458s" keyTimes="0;0.117;0.12;1" values="none;inline;none;none"/></g><g style="display:none;"><use xlink:href="#svg_f34_d299" transform="matrix(1 0 0 1 47.95 33)"/><animate attributeName="display" repeatCount="indefinite" dur="12.458s" keyTimes="0;0.114;0.117;1" values="none;inline;none;none"/></g><g style="display:none;"><use xlink:href="#svg_f33_d299" transform="matrix(1 0 0 1 47.95 33)"/><animate attributeName="display" repeatCount="indefinite" dur="12.458s" keyTimes="0;0.11;0.114;1" values="none;inline;none;none"/></g><g style="display:none;"><use xlink:href="#svg_f32_d299" transform="matrix(1 0 0 1 47.95 33)"/><animate attributeName="display" repeatCount="indefinite" dur="12.458s" keyTimes="0;0.107;0.11;1" values="none;inline;none;none"/></g><g style="display:none;"><use xlink:href="#svg_f31_d299" transform="matrix(1 0 0 1 47.95 33)"/><animate attributeName="display" repeatCount="indefinite" dur="12.458s" keyTimes="0;0.104;0.107;1" values="none;inline;none;none"/></g><g style="display:none;"><use xlink:href="#svg_f30_d299" transform="matrix(1 0 0 1 47.95 33)"/><animate attributeName="display" repeatCount="indefinite" dur="12.458s" keyTimes="0;0.1;0.104;1" values="none;inline;none;none"/></g><g style="display:none;"><use xlink:href="#svg_f29_d299" transform="matrix(1 0 0 1 47.95 33)"/><animate attributeName="display" repeatCount="indefinite" dur="12.458s" keyTimes="0;0.097;0.1;1" values="none;inline;none;none"/></g><g style="display:none;"><use xlink:href="#svg_f28_d299" transform="matrix(1 0 0 1 47.95 33)"/><animate attributeName="display" repeatCount="indefinite" dur="12.458s" keyTimes="0;0.094;0.097;1" values="none;inline;none;none"/></g><g style="display:none;"><use xlink:href="#svg_f27_d299" transform="matrix(1 0 0 1 47.95 33)"/><animate attributeName="display" repeatCount="indefinite" dur="12.458s" keyTimes="0;0.09;0.094;1" values="none;inline;none;none"/></g><g style="display:none;"><use xlink:href="#svg_f26_d299" transform="matrix(1 0 0 1 47.95 33)"/><animate attributeName="display" repeatCount="indefinite" dur="12.458s" keyTimes="0;0.087;0.09;1" values="none;inline;none;none"/></g><g style="display:none;"><use xlink:href="#svg_f25_d299" transform="matrix(1 0 0 1 47.95 33)"/><animate attributeName="display" repeatCount="indefinite" dur="12.458s" keyTimes="0;0.084;0.087;1" values="none;inline;none;none"/></g><g style="display:none;"><use xlink:href="#svg_f24_d299" transform="matrix(1 0 0 1 47.95 33)"/><animate attributeName="display" repeatCount="indefinite" dur="12.458s" keyTimes="0;0.08;0.084;1" values="none;inline;none;none"/></g><g style="display:none;"><use xlink:href="#svg_f23_d299" transform="matrix(1 0 0 1 47.95 33)"/><animate attributeName="display" repeatCount="indefinite" dur="12.458s" keyTimes="0;0.077;0.08;1" values="none;inline;none;none"/></g><g style="display:none;"><use xlink:href="#svg_f22_d299" transform="matrix(1 0 0 1 47.95 33)"/><animate attributeName="display" repeatCount="indefinite" dur="12.458s" keyTimes="0;0.074;0.077;1" values="none;inline;none;none"/></g><g style="display:none;"><use xlink:href="#svg_f21_d299" transform="matrix(1 0 0 1 47.95 33)"/><animate attributeName="display" repeatCount="indefinite" dur="12.458s" keyTimes="0;0.07;0.074;1" values="none;inline;none;none"/></g><g style="display:none;"><use xlink:href="#svg_f20_d299" transform="matrix(1 0 0 1 47.95 33)"/><animate attributeName="display" repeatCount="indefinite" dur="12.458s" keyTimes="0;0.067;0.07;1" values="none;inline;none;none"/></g><g style="display:none;"><use xlink:href="#svg_f19_d299" transform="matrix(1 0 0 1 47.95 33)"/><animate attributeName="display" repeatCount="indefinite" dur="12.458s" keyTimes="0;0.064;0.067;1" values="none;inline;none;none"/></g><g style="display:none;"><use xlink:href="#svg_f18_d299" transform="matrix(1 0 0 1 47.95 33)"/><animate attributeName="display" repeatCount="indefinite" dur="12.458s" keyTimes="0;0.06;0.064;1" values="none;inline;none;none"/></g><g style="display:none;"><use xlink:href="#svg_f17_d299" transform="matrix(1 0 0 1 47.95 33)"/><animate attributeName="display" repeatCount="indefinite" dur="12.458s" keyTimes="0;0.057;0.06;1" values="none;inline;none;none"/></g><g style="display:none;"><use xlink:href="#svg_f16_d299" transform="matrix(1 0 0 1 47.95 33)"/><animate attributeName="display" repeatCount="indefinite" dur="12.458s" keyTimes="0;0.054;0.057;1" values="none;inline;none;none"/></g><g style="display:none;"><use xlink:href="#svg_f15_d299" transform="matrix(1 0 0 1 47.95 33)"/><animate attributeName="display" repeatCount="indefinite" dur="12.458s" keyTimes="0;0.05;0.054;1" values="none;inline;none;none"/></g><g style="display:none;"><use xlink:href="#svg_f14_d299" transform="matrix(1 0 0 1 47.95 33)"/><animate attributeName="display" repeatCount="indefinite" dur="12.458s" keyTimes="0;0.047;0.05;1" values="none;inline;none;none"/></g><g style="display:none;"><use xlink:href="#svg_f13_d299" transform="matrix(1 0 0 1 47.95 33)"/><animate attributeName="display" repeatCount="indefinite" dur="12.458s" keyTimes="0;0.043;0.047;1" values="none;inline;none;none"/></g><g style="display:none;"><use xlink:href="#svg_f12_d299" transform="matrix(1 0 0 1 47.95 33)"/><animate attributeName="display" repeatCount="indefinite" dur="12.458s" keyTimes="0;0.04;0.043;1" values="none;inline;none;none"/></g><g style="display:none;"><use xlink:href="#svg_f11_d299" transform="matrix(1 0 0 1 47.95 33)"/><animate attributeName="display" repeatCount="indefinite" dur="12.458s" keyTimes="0;0.037;0.04;1" values="none;inline;none;none"/></g><g style="display:none;"><use xlink:href="#svg_f10_d299" transform="matrix(1 0 0 1 47.95 33)"/><animate attributeName="display" repeatCount="indefinite" dur="12.458s" keyTimes="0;0.033;0.037;1" values="none;inline;none;none"/></g><g style="display:none;"><use xlink:href="#svg_f9_d299" transform="matrix(1 0 0 1 47.95 33)"/><animate attributeName="display" repeatCount="indefinite" dur="12.458s" keyTimes="0;0.03;0.033;1" values="none;inline;none;none"/></g><g style="display:none;"><use xlink:href="#svg_f8_d299" transform="matrix(1 0 0 1 47.95 33)"/><animate attributeName="display" repeatCount="indefinite" dur="12.458s" keyTimes="0;0.027;0.03;1" values="none;inline;none;none"/></g><g style="display:none;"><use xlink:href="#svg_f7_d299" transform="matrix(1 0 0 1 47.95 33)"/><animate attributeName="display" repeatCount="indefinite" dur="12.458s" keyTimes="0;0.023;0.027;1" values="none;inline;none;none"/></g><g style="display:none;"><use xlink:href="#svg_f6_d299" transform="matrix(1 0 0 1 47.95 33)"/><animate attributeName="display" repeatCount="indefinite" dur="12.458s" keyTimes="0;0.02;0.023;1" values="none;inline;none;none"/></g><g style="display:none;"><use xlink:href="#svg_f5_d299" transform="matrix(1 0 0 1 47.95 33)"/><animate attributeName="display" repeatCount="indefinite" dur="12.458s" keyTimes="0;0.017;0.02;1" values="none;inline;none;none"/></g><g><animate attributeName="display" repeatCount="indefinite" dur="12.458s" keyTimes="0;0.017;1" values="inline;none;none"/></g><g style="display:none;"><use xlink:href="#svg_f5_d299" transform="matrix(1 0 0 1 47.95 33)"/><animate attributeName="display" repeatCount="indefinite" dur="12.458s" keyTimes="0;0.987;0.99;1" values="none;inline;none;none"/></g><g style="display:none;"><use xlink:href="#svg_f6_d299" transform="matrix(1 0 0 1 47.95 33)"/><animate attributeName="display" repeatCount="indefinite" dur="12.458s" keyTimes="0;0.983;0.987;1" values="none;inline;none;none"/></g><g style="display:none;"><use xlink:href="#svg_f7_d299" transform="matrix(1 0 0 1 47.95 33)"/><animate attributeName="display" repeatCount="indefinite" dur="12.458s" keyTimes="0;0.98;0.983;1" values="none;inline;none;none"/></g><g style="display:none;"><use xlink:href="#svg_f8_d299" transform="matrix(1 0 0 1 47.95 33)"/><animate attributeName="display" repeatCount="indefinite" dur="12.458s" keyTimes="0;0.977;0.98;1" values="none;inline;none;none"/></g><g style="display:none;"><use xlink:href="#svg_f9_d299" transform="matrix(1 0 0 1 47.95 33)"/><animate attributeName="display" repeatCount="indefinite" dur="12.458s" keyTimes="0;0.973;0.977;1" values="none;inline;none;none"/></g><g style="display:none;"><use xlink:href="#svg_f10_d299" transform="matrix(1 0 0 1 47.95 33)"/><animate attributeName="display" repeatCount="indefinite" dur="12.458s" keyTimes="0;0.97;0.973;1" values="none;inline;none;none"/></g><g style="display:none;"><use xlink:href="#svg_f11_d299" transform="matrix(1 0 0 1 47.95 33)"/><animate attributeName="display" repeatCount="indefinite" dur="12.458s" keyTimes="0;0.967;0.97;1" values="none;inline;none;none"/></g><g style="display:none;"><use xlink:href="#svg_f12_d299" transform="matrix(1 0 0 1 47.95 33)"/><animate attributeName="display" repeatCount="indefinite" dur="12.458s" keyTimes="0;0.963;0.967;1" values="none;inline;none;none"/></g><g style="display:none;"><use xlink:href="#svg_f13_d299" transform="matrix(1 0 0 1 47.95 33)"/><animate attributeName="display" repeatCount="indefinite" dur="12.458s" keyTimes="0;0.96;0.963;1" values="none;inline;none;none"/></g><g style="display:none;"><use xlink:href="#svg_f14_d299" transform="matrix(1 0 0 1 47.95 33)"/><animate attributeName="display" repeatCount="indefinite" dur="12.458s" keyTimes="0;0.957;0.96;1" values="none;inline;none;none"/></g><g style="display:none;"><use xlink:href="#svg_f15_d299" transform="matrix(1 0 0 1 47.95 33)"/><animate attributeName="display" repeatCount="indefinite" dur="12.458s" keyTimes="0;0.953;0.957;1" values="none;inline;none;none"/></g><g style="display:none;"><use xlink:href="#svg_f16_d299" transform="matrix(1 0 0 1 47.95 33)"/><animate attributeName="display" repeatCount="indefinite" dur="12.458s" keyTimes="0;0.95;0.953;1" values="none;inline;none;none"/></g><g style="display:none;"><use xlink:href="#svg_f17_d299" transform="matrix(1 0 0 1 47.95 33)"/><animate attributeName="display" repeatCount="indefinite" dur="12.458s" keyTimes="0;0.946;0.95;1" values="none;inline;none;none"/></g><g style="display:none;"><use xlink:href="#svg_f18_d299" transform="matrix(1 0 0 1 47.95 33)"/><animate attributeName="display" repeatCount="indefinite" dur="12.458s" keyTimes="0;0.943;0.946;1" values="none;inline;none;none"/></g><g style="display:none;"><use xlink:href="#svg_f19_d299" transform="matrix(1 0 0 1 47.95 33)"/><animate attributeName="display" repeatCount="indefinite" dur="12.458s" keyTimes="0;0.94;0.943;1" values="none;inline;none;none"/></g><g style="display:none;"><use xlink:href="#svg_f20_d299" transform="matrix(1 0 0 1 47.95 33)"/><animate attributeName="display" repeatCount="indefinite" dur="12.458s" keyTimes="0;0.936;0.94;1" values="none;inline;none;none"/></g><g style="display:none;"><use xlink:href="#svg_f21_d299" transform="matrix(1 0 0 1 47.95 33)"/><animate attributeName="display" repeatCount="indefinite" dur="12.458s" keyTimes="0;0.933;0.936;1" values="none;inline;none;none"/></g><g style="display:none;"><use xlink:href="#svg_f22_d299" transform="matrix(1 0 0 1 47.95 33)"/><animate attributeName="display" repeatCount="indefinite" dur="12.458s" keyTimes="0;0.93;0.933;1" values="none;inline;none;none"/></g><g style="display:none;"><use xlink:href="#svg_f23_d299" transform="matrix(1 0 0 1 47.95 33)"/><animate attributeName="display" repeatCount="indefinite" dur="12.458s" keyTimes="0;0.926;0.93;1" values="none;inline;none;none"/></g><g style="display:none;"><use xlink:href="#svg_f24_d299" transform="matrix(1 0 0 1 47.95 33)"/><animate attributeName="display" repeatCount="indefinite" dur="12.458s" keyTimes="0;0.923;0.926;1" values="none;inline;none;none"/></g><g style="display:none;"><use xlink:href="#svg_f25_d299" transform="matrix(1 0 0 1 47.95 33)"/><animate attributeName="display" repeatCount="indefinite" dur="12.458s" keyTimes="0;0.92;0.923;1" values="none;inline;none;none"/></g><g style="display:none;"><use xlink:href="#svg_f26_d299" transform="matrix(1 0 0 1 47.95 33)"/><animate attributeName="display" repeatCount="indefinite" dur="12.458s" keyTimes="0;0.916;0.92;1" values="none;inline;none;none"/></g><g style="display:none;"><use xlink:href="#svg_f27_d299" transform="matrix(1 0 0 1 47.95 33)"/><animate attributeName="display" repeatCount="indefinite" dur="12.458s" keyTimes="0;0.913;0.916;1" values="none;inline;none;none"/></g><g style="display:none;"><use xlink:href="#svg_f28_d299" transform="matrix(1 0 0 1 47.95 33)"/><animate attributeName="display" repeatCount="indefinite" dur="12.458s" keyTimes="0;0.91;0.913;1" values="none;inline;none;none"/></g><g style="display:none;"><use xlink:href="#svg_f29_d299" transform="matrix(1 0 0 1 47.95 33)"/><animate attributeName="display" repeatCount="indefinite" dur="12.458s" keyTimes="0;0.906;0.91;1" values="none;inline;none;none"/></g><g style="display:none;"><use xlink:href="#svg_f30_d299" transform="matrix(1 0 0 1 47.95 33)"/><animate attributeName="display" repeatCount="indefinite" dur="12.458s" keyTimes="0;0.903;0.906;1" values="none;inline;none;none"/></g><g style="display:none;"><use xlink:href="#svg_f31_d299" transform="matrix(1 0 0 1 47.95 33)"/><animate attributeName="display" repeatCount="indefinite" dur="12.458s" keyTimes="0;0.9;0.903;1" values="none;inline;none;none"/></g><g style="display:none;"><use xlink:href="#svg_f32_d299" transform="matrix(1 0 0 1 47.95 33)"/><animate attributeName="display" repeatCount="indefinite" dur="12.458s" keyTimes="0;0.896;0.9;1" values="none;inline;none;none"/></g><g style="display:none;"><use xlink:href="#svg_f33_d299" transform="matrix(1 0 0 1 47.95 33)"/><animate attributeName="display" repeatCount="indefinite" dur="12.458s" keyTimes="0;0.893;0.896;1" values="none;inline;none;none"/></g><g style="display:none;"><use xlink:href="#svg_f34_d299" transform="matrix(1 0 0 1 47.95 33)"/><animate attributeName="display" repeatCount="indefinite" dur="12.458s" keyTimes="0;0.89;0.893;1" values="none;inline;none;none"/></g><g style="display:none;"><use xlink:href="#svg_f35_d299" transform="matrix(1 0 0 1 47.95 33)"/><animate attributeName="display" repeatCount="indefinite" dur="12.458s" keyTimes="0;0.886;0.89;1" values="none;inline;none;none"/></g><g style="display:none;"><use xlink:href="#Symbol_7" transform="matrix(1 0 0 1 47.95 62.7)"/><animate attributeName="display" repeatCount="indefinite" dur="12.458s" keyTimes="0;0.127;0.876;1" values="none;inline;none;none"/></g><g style="display:none;"><use xlink:href="#Symbol_8" transform="matrix(1 0 0 1 47.7 62.7)"/><animate attributeName="display" repeatCount="indefinite" dur="12.458s" keyTimes="0;0.124;0.127;1" values="none;inline;none;none"/></g><g style="display:none;"><use xlink:href="#Symbol_9" transform="matrix(1 0 0 1 47.15 62.7)"/><animate attributeName="display" repeatCount="indefinite" dur="12.458s" keyTimes="0;0.12;0.124;1" values="none;inline;none;none"/></g><g style="display:none;"><use xlink:href="#Symbol_10" transform="matrix(1 0 0 1 46.3 62.7)"/><animate attributeName="display" repeatCount="indefinite" dur="12.458s" keyTimes="0;0.117;0.12;1" values="none;inline;none;none"/></g><g style="display:none;"><use xlink:href="#Symbol_11" transform="matrix(1 0 0 1 45 62.7)"/><animate attributeName="display" repeatCount="indefinite" dur="12.458s" keyTimes="0;0.114;0.117;1" values="none;inline;none;none"/></g><g style="display:none;"><use xlink:href="#Symbol_12" transform="matrix(1 0 0 1 43.35 62.7)"/><animate attributeName="display" repeatCount="indefinite" dur="12.458s" keyTimes="0;0.11;0.114;1" values="none;inline;none;none"/></g><g style="display:none;"><use xlink:href="#Symbol_13" transform="matrix(1 0 0 1 41.35 62.7)"/><animate attributeName="display" repeatCount="indefinite" dur="12.458s" keyTimes="0;0.107;0.11;1" values="none;inline;none;none"/></g><g style="display:none;"><use xlink:href="#Symbol_14" transform="matrix(1 0 0 1 38.95 62.7)"/><animate attributeName="display" repeatCount="indefinite" dur="12.458s" keyTimes="0;0.104;0.107;1" values="none;inline;none;none"/></g><g style="display:none;"><use xlink:href="#Symbol_15" transform="matrix(1 0 0 1 36.25 62.7)"/><animate attributeName="display" repeatCount="indefinite" dur="12.458s" keyTimes="0;0.1;0.104;1" values="none;inline;none;none"/></g><g style="display:none;"><use xlink:href="#Symbol_16" transform="matrix(1 0 0 1 33.2 62.7)"/><animate attributeName="display" repeatCount="indefinite" dur="12.458s" keyTimes="0;0.097;0.1;1" values="none;inline;none;none"/></g><g style="display:none;"><use xlink:href="#Symbol_17" transform="matrix(1 0 0 1 29.7 62.7)"/><animate attributeName="display" repeatCount="indefinite" dur="12.458s" keyTimes="0;0.094;0.097;1" values="none;inline;none;none"/></g><g style="display:none;"><use xlink:href="#Symbol_18" transform="matrix(1 0 0 1 25.9 62.7)"/><animate attributeName="display" repeatCount="indefinite" dur="12.458s" keyTimes="0;0.09;0.094;1" values="none;inline;none;none"/></g><g style="display:none;"><use xlink:href="#Symbol_19" transform="matrix(1 0 0 1 21.75 62.7)"/><animate attributeName="display" repeatCount="indefinite" dur="12.458s" keyTimes="0;0.087;0.09;1" values="none;inline;none;none"/></g><g style="display:none;"><use xlink:href="#Symbol_20" transform="matrix(1 0 0 1 17.2 63.55)"/><animate attributeName="display" repeatCount="indefinite" dur="12.458s" keyTimes="0;0.084;0.087;1" values="none;inline;none;none"/></g><g style="display:none;"><use xlink:href="#Symbol_21" transform="matrix(1 0 0 1 12.3 65.95)"/><animate attributeName="display" repeatCount="indefinite" dur="12.458s" keyTimes="0;0.08;0.084;1" values="none;inline;none;none"/></g><g style="display:none;"><use xlink:href="#Symbol_21" transform="matrix(1 0 0 1 12.3 65.95)"/><animate attributeName="display" repeatCount="indefinite" dur="12.458s" keyTimes="0;0.923;0.926;1" values="none;inline;none;none"/></g><g style="display:none;"><use xlink:href="#Symbol_20" transform="matrix(1 0 0 1 17.2 63.55)"/><animate attributeName="display" repeatCount="indefinite" dur="12.458s" keyTimes="0;0.92;0.923;1" values="none;inline;none;none"/></g><g style="display:none;"><use xlink:href="#Symbol_19" transform="matrix(1 0 0 1 21.75 62.7)"/><animate attributeName="display" repeatCount="indefinite" dur="12.458s" keyTimes="0;0.916;0.92;1" values="none;inline;none;none"/></g><g style="display:none;"><use xlink:href="#Symbol_18" transform="matrix(1 0 0 1 25.9 62.7)"/><animate attributeName="display" repeatCount="indefinite" dur="12.458s" keyTimes="0;0.913;0.916;1" values="none;inline;none;none"/></g><g style="display:none;"><use xlink:href="#Symbol_17" transform="matrix(1 0 0 1 29.7 62.7)"/><animate attributeName="display" repeatCount="indefinite" dur="12.458s" keyTimes="0;0.91;0.913;1" values="none;inline;none;none"/></g><g style="display:none;"><use xlink:href="#Symbol_16" transform="matrix(1 0 0 1 33.2 62.7)"/><animate attributeName="display" repeatCount="indefinite" dur="12.458s" keyTimes="0;0.906;0.91;1" values="none;inline;none;none"/></g><g style="display:none;"><use xlink:href="#Symbol_15" transform="matrix(1 0 0 1 36.25 62.7)"/><animate attributeName="display" repeatCount="indefinite" dur="12.458s" keyTimes="0;0.903;0.906;1" values="none;inline;none;none"/></g><g style="display:none;"><use xlink:href="#Symbol_14" transform="matrix(1 0 0 1 38.95 62.7)"/><animate attributeName="display" repeatCount="indefinite" dur="12.458s" keyTimes="0;0.9;0.903;1" values="none;inline;none;none"/></g><g style="display:none;"><use xlink:href="#Symbol_13" transform="matrix(1 0 0 1 41.35 62.7)"/><animate attributeName="display" repeatCount="indefinite" dur="12.458s" keyTimes="0;0.896;0.9;1" values="none;inline;none;none"/></g><g style="display:none;"><use xlink:href="#Symbol_12" transform="matrix(1 0 0 1 43.35 62.7)"/><animate attributeName="display" repeatCount="indefinite" dur="12.458s" keyTimes="0;0.893;0.896;1" values="none;inline;none;none"/></g><g style="display:none;"><use xlink:href="#Symbol_11" transform="matrix(1 0 0 1 45 62.7)"/><animate attributeName="display" repeatCount="indefinite" dur="12.458s" keyTimes="0;0.89;0.893;1" values="none;inline;none;none"/></g><g style="display:none;"><use xlink:href="#Symbol_10" transform="matrix(1 0 0 1 46.3 62.7)"/><animate attributeName="display" repeatCount="indefinite" dur="12.458s" keyTimes="0;0.886;0.89;1" values="none;inline;none;none"/></g><g style="display:none;"><use xlink:href="#Symbol_9" transform="matrix(1 0 0 1 47.15 62.7)"/><animate attributeName="display" repeatCount="indefinite" dur="12.458s" keyTimes="0;0.883;0.886;1" values="none;inline;none;none"/></g><g style="display:none;"><use xlink:href="#Symbol_8" transform="matrix(1 0 0 1 47.7 62.7)"/><animate attributeName="display" repeatCount="indefinite" dur="12.458s" keyTimes="0;0.88;0.883;1" values="none;inline;none;none"/></g><g style="display:none;"><use xlink:href="#Symbol_7" transform="matrix(1 0 0 1 47.95 62.7)"/><animate attributeName="display" repeatCount="indefinite" dur="12.458s" keyTimes="0;0.876;0.88;1" values="none;inline;none;none"/></g><g style="display:none;"><use xlink:href="#Symbol_4" transform="matrix(1 0 0 1 87.95 85.35)"/><use xlink:href="#Symbol_5" transform="matrix(1 0 0 1 73.1 85.35)"/><use xlink:href="#d" transform="matrix(1 0 0 1 57.95 85.35)"/><use xlink:href="#i" transform="matrix(1 0 0 1 45.25 85.35)"/><use xlink:href="#Symbol_6" transform="matrix(1 0 0 1 32.8 85.35)"/><use xlink:href="#i" transform="matrix(1 0 0 1 20.25 85.35)"/><use xlink:href="#d" transform="matrix(1 0 0 1 7.95 85.35)"/><animate attributeName="display" repeatCount="indefinite" dur="12.458s" keyTimes="0;0.134;0.866;1" values="none;inline;none;none"/></g><g style="display:none;"><use xlink:href="#Symbol_4" transform="matrix(0.8 0 0 0.8 87.95 85.35)"/><use xlink:href="#Symbol_5" transform="matrix(1 0 0 1 73.1 85.35)"/><use xlink:href="#d" transform="matrix(1 0 0 1 57.95 85.35)"/><use xlink:href="#i" transform="matrix(1 0 0 1 45.25 85.35)"/><use xlink:href="#Symbol_6" transform="matrix(1 0 0 1 32.8 85.35)"/><use xlink:href="#i" transform="matrix(1 0 0 1 20.25 85.35)"/><use xlink:href="#d" transform="matrix(1 0 0 1 7.95 85.35)"/><animate attributeName="display" repeatCount="indefinite" dur="12.458s" keyTimes="0;0.13;0.134;1" values="none;inline;none;none"/></g><g style="display:none;"><use xlink:href="#Symbol_5" transform="matrix(0.8 0 0 0.8 73.15 85.35)"/><use xlink:href="#d" transform="matrix(1 0 0 1 57.95 85.35)"/><use xlink:href="#i" transform="matrix(1 0 0 1 45.25 85.35)"/><use xlink:href="#Symbol_6" transform="matrix(1 0 0 1 32.8 85.35)"/><use xlink:href="#i" transform="matrix(1 0 0 1 20.25 85.35)"/><use xlink:href="#d" transform="matrix(1 0 0 1 7.95 85.35)"/><animate attributeName="display" repeatCount="indefinite" dur="12.458s" keyTimes="0;0.127;0.13;1" values="none;inline;none;none"/></g><g style="display:none;"><use xlink:href="#d" transform="matrix(0.8 0 0 0.8 57.95 85.35)"/><use xlink:href="#i" transform="matrix(1 0 0 1 45.25 85.35)"/><use xlink:href="#Symbol_6" transform="matrix(1 0 0 1 32.8 85.35)"/><use xlink:href="#i" transform="matrix(1 0 0 1 20.25 85.35)"/><use xlink:href="#d" transform="matrix(1 0 0 1 7.95 85.35)"/><animate attributeName="display" repeatCount="indefinite" dur="12.458s" keyTimes="0;0.124;0.127;1" values="none;inline;none;none"/></g><g style="display:none;"><use xlink:href="#i" transform="matrix(0.8 0 0 0.8 45.25 85.35)"/><use xlink:href="#Symbol_6" transform="matrix(1 0 0 1 32.8 85.35)"/><use xlink:href="#i" transform="matrix(1 0 0 1 20.25 85.35)"/><use xlink:href="#d" transform="matrix(1 0 0 1 7.95 85.35)"/><animate attributeName="display" repeatCount="indefinite" dur="12.458s" keyTimes="0;0.12;0.124;1" values="none;inline;none;none"/></g><g style="display:none;"><use xlink:href="#Symbol_6" transform="matrix(0.8 0 0 0.8 32.8 85.35)"/><use xlink:href="#i" transform="matrix(1 0 0 1 20.25 85.35)"/><use xlink:href="#d" transform="matrix(1 0 0 1 7.95 85.35)"/><animate attributeName="display" repeatCount="indefinite" dur="12.458s" keyTimes="0;0.117;0.12;1" values="none;inline;none;none"/></g><g style="display:none;"><use xlink:href="#i" transform="matrix(0.8 0 0 0.8 20.25 85.35)"/><use xlink:href="#d" transform="matrix(1 0 0 1 7.95 85.35)"/><animate attributeName="display" repeatCount="indefinite" dur="12.458s" keyTimes="0;0.114;0.117;1" values="none;inline;none;none"/></g><g style="display:none;"><use xlink:href="#d" transform="matrix(0.8 0 0 0.8 7.95 85.35)"/><animate attributeName="display" repeatCount="indefinite" dur="12.458s" keyTimes="0;0.11;0.114;1" values="none;inline;none;none"/></g><g style="display:none;"><use xlink:href="#d" transform="matrix(0.8 0 0 0.8 7.95 85.35)"/><animate attributeName="display" repeatCount="indefinite" dur="12.458s" keyTimes="0;0.89;0.893;1" values="none;inline;none;none"/></g><g style="display:none;"><use xlink:href="#i" transform="matrix(0.8 0 0 0.8 20.25 85.35)"/><use xlink:href="#d" transform="matrix(1 0 0 1 7.95 85.35)"/><animate attributeName="display" repeatCount="indefinite" dur="12.458s" keyTimes="0;0.886;0.89;1" values="none;inline;none;none"/></g><g style="display:none;"><use xlink:href="#Symbol_6" transform="matrix(0.8 0 0 0.8 32.8 85.35)"/><use xlink:href="#i" transform="matrix(1 0 0 1 20.25 85.35)"/><use xlink:href="#d" transform="matrix(1 0 0 1 7.95 85.35)"/><animate attributeName="display" repeatCount="indefinite" dur="12.458s" keyTimes="0;0.883;0.886;1" values="none;inline;none;none"/></g><g style="display:none;"><use xlink:href="#i" transform="matrix(0.8 0 0 0.8 45.25 85.35)"/><use xlink:href="#Symbol_6" transform="matrix(1 0 0 1 32.8 85.35)"/><use xlink:href="#i" transform="matrix(1 0 0 1 20.25 85.35)"/><use xlink:href="#d" transform="matrix(1 0 0 1 7.95 85.35)"/><animate attributeName="display" repeatCount="indefinite" dur="12.458s" keyTimes="0;0.88;0.883;1" values="none;inline;none;none"/></g><g style="display:none;"><use xlink:href="#d" transform="matrix(0.8 0 0 0.8 57.95 85.35)"/><use xlink:href="#i" transform="matrix(1 0 0 1 45.25 85.35)"/><use xlink:href="#Symbol_6" transform="matrix(1 0 0 1 32.8 85.35)"/><use xlink:href="#i" transform="matrix(1 0 0 1 20.25 85.35)"/><use xlink:href="#d" transform="matrix(1 0 0 1 7.95 85.35)"/><animate attributeName="display" repeatCount="indefinite" dur="12.458s" keyTimes="0;0.876;0.88;1" values="none;inline;none;none"/></g><g style="display:none;"><use xlink:href="#Symbol_5" transform="matrix(0.8 0 0 0.8 73.15 85.35)"/><use xlink:href="#d" transform="matrix(1 0 0 1 57.95 85.35)"/><use xlink:href="#i" transform="matrix(1 0 0 1 45.25 85.35)"/><use xlink:href="#Symbol_6" transform="matrix(1 0 0 1 32.8 85.35)"/><use xlink:href="#i" transform="matrix(1 0 0 1 20.25 85.35)"/><use xlink:href="#d" transform="matrix(1 0 0 1 7.95 85.35)"/><animate attributeName="display" repeatCount="indefinite" dur="12.458s" keyTimes="0;0.873;0.876;1" values="none;inline;none;none"/></g><g style="display:none;"><use xlink:href="#Symbol_4" transform="matrix(0.8 0 0 0.8 87.95 85.35)"/><use xlink:href="#Symbol_5" transform="matrix(1 0 0 1 73.1 85.35)"/><use xlink:href="#d" transform="matrix(1 0 0 1 57.95 85.35)"/><use xlink:href="#i" transform="matrix(1 0 0 1 45.25 85.35)"/><use xlink:href="#Symbol_6" transform="matrix(1 0 0 1 32.8 85.35)"/><use xlink:href="#i" transform="matrix(1 0 0 1 20.25 85.35)"/><use xlink:href="#d" transform="matrix(1 0 0 1 7.95 85.35)"/><animate attributeName="display" repeatCount="indefinite" dur="12.458s" keyTimes="0;0.87;0.873;1" values="none;inline;none;none"/></g><g style="display:none;"><use xlink:href="#Symbol_4" transform="matrix(1 0 0 1 87.95 85.35)"/><use xlink:href="#Symbol_5" transform="matrix(1 0 0 1 73.1 85.35)"/><use xlink:href="#d" transform="matrix(1 0 0 1 57.95 85.35)"/><use xlink:href="#i" transform="matrix(1 0 0 1 45.25 85.35)"/><use xlink:href="#Symbol_6" transform="matrix(1 0 0 1 32.8 85.35)"/><use xlink:href="#i" transform="matrix(1 0 0 1 20.25 85.35)"/><use xlink:href="#d" transform="matrix(1 0 0 1 7.95 85.35)"/><animate attributeName="display" repeatCount="indefinite" dur="12.458s" keyTimes="0;0.866;0.87;1" values="none;inline;none;none"/></g></g></svg>