<?xml version="1.0" encoding="utf-8"?><svg xmlns="http://www.w3.org/2000/svg" width="2000" height="800"><path fill="none" stroke="#D6D8E9" stroke-width="1.8" stroke-linecap="round" stroke-linejoin="round" stroke-miterlimit="10" d="M1764.373,777.052l-1.505,3.052l-3.366,0.49l2.436,2.374l-0.574,3.352l3.01-1.583l3.011,1.583l-0.573-3.352l2.435-2.374l-3.366-0.49	L1764.373,777.052z"/><circle fill="none" stroke="#D6D8E9" stroke-width="1.8" stroke-linecap="round" stroke-linejoin="round" stroke-miterlimit="10" cx="1644.059" cy="607.316" r="5.405"/><circle fill="none" stroke="#D6D8E9" stroke-width="1.8" stroke-linecap="round" stroke-linejoin="round" stroke-miterlimit="10" cx="1487.736" cy="417.6" r="1.544"/><circle fill="none" stroke="#D6D8E9" stroke-width="1.8" stroke-linecap="round" stroke-linejoin="round" stroke-miterlimit="10" cx="1763.143" cy="311.887" r="1.484"/><circle fill="none" stroke="#D6D8E9" stroke-width="1.8" stroke-linecap="round" stroke-linejoin="round" stroke-miterlimit="10" cx="1745.312" cy="301.486" r="1.485"/><path fill="none" stroke="#D6D8E9" stroke-width="1.8" stroke-linecap="round" stroke-linejoin="round" stroke-miterlimit="10" d="M1869.602,18.881c0,2.871,2.325,5.201,5.198,5.201c2.875,0,5.2-2.33,5.2-5.201c0-2.874-2.325-5.2-5.2-5.2	C1871.927,13.681,1869.602,16.007,1869.602,18.881z"/><circle fill="none" stroke="#D6D8E9" stroke-width="1.8" stroke-linecap="round" stroke-linejoin="round" stroke-miterlimit="10" cx="1442.916" cy="220.298" r="1.484"/><path fill="none" stroke="#D6D8E9" stroke-width="1.8" stroke-linecap="round" stroke-linejoin="round" stroke-miterlimit="10" d="M232.791,702.403l-1.506,3.052l-3.366,0.489l2.437,2.374l-0.575,3.352l3.011-1.582l3.01,1.582l-0.574-3.352l2.436-2.374	l-3.366-0.489L232.791,702.403z M525.964,657.316c0,2.981,2.418,5.404,5.404,5.404c2.987,0,5.405-2.423,5.405-5.404	c0-2.987-2.418-5.405-5.405-5.405C528.382,651.911,525.964,654.329,525.964,657.316z"/><circle fill="none" stroke="#D6D8E9" stroke-width="1.8" stroke-linecap="round" stroke-linejoin="round" stroke-miterlimit="10" cx="288.821" cy="397.6" r="1.544"/><path fill="none" stroke="#D6D8E9" stroke-width="1.8" stroke-linecap="round" stroke-linejoin="round" stroke-miterlimit="10" d="M447.576,230.66c0,2.87,2.324,5.2,5.197,5.2c2.875,0,5.201-2.33,5.201-5.2c0-2.875-2.326-5.2-5.201-5.2	C449.9,225.46,447.576,227.785,447.576,230.66z"/><circle fill="none" stroke="#D6D8E9" stroke-width="1.8" stroke-linecap="round" stroke-linejoin="round" stroke-miterlimit="10" cx="184.002" cy="80.298" r="1.484"/><path fill="none" stroke="#D6D8E9" stroke-width="1.8" stroke-linecap="round" stroke-linejoin="round" stroke-miterlimit="10" d="M359.902,463.662l-8.403,8.406 M351.499,463.662l8.403,8.406"/></svg>