<?xml version="1.0" encoding="utf-8"?><svg xmlns="http://www.w3.org/2000/svg" width="2000" height="800"><path fill="none" stroke="#D6D8E9" stroke-width="1.8" stroke-linecap="round" stroke-linejoin="round" stroke-miterlimit="10" d="M235.627 777.052L237.132 780.104 240.498 780.594 238.062 782.968 238.637 786.319 235.627 784.736 232.616 786.319 233.19 782.968 230.755 780.594 234.121 780.104z"/><circle fill="none" stroke="#D6D8E9" stroke-width="1.8" stroke-linecap="round" stroke-linejoin="round" stroke-miterlimit="10" cx="355.942" cy="607.316" r="5.405"/><circle fill="none" stroke="#D6D8E9" stroke-width="1.8" stroke-linecap="round" stroke-linejoin="round" stroke-miterlimit="10" cx="512.264" cy="417.6" r="1.544"/><circle fill="none" stroke="#D6D8E9" stroke-width="1.8" stroke-linecap="round" stroke-linejoin="round" stroke-miterlimit="10" cx="236.858" cy="311.887" r="1.484"/><circle fill="none" stroke="#D6D8E9" stroke-width="1.8" stroke-linecap="round" stroke-linejoin="round" stroke-miterlimit="10" cx="254.688" cy="301.486" r="1.485"/><path fill="none" stroke="#D6D8E9" stroke-width="1.8" stroke-linecap="round" stroke-linejoin="round" stroke-miterlimit="10" d="M130.399,18.881c0,2.871-2.326,5.201-5.199,5.201c-2.875,0-5.2-2.33-5.2-5.201c0-2.874,2.325-5.2,5.2-5.2	C128.073,13.681,130.399,16.007,130.399,18.881z"/><circle fill="none" stroke="#D6D8E9" stroke-width="1.8" stroke-linecap="round" stroke-linejoin="round" stroke-miterlimit="10" cx="557.084" cy="220.298" r="1.484"/><path fill="none" stroke="#D6D8E9" stroke-width="1.8" stroke-linecap="round" stroke-linejoin="round" stroke-miterlimit="10" d="M1767.209 702.403L1768.715 705.455 1772.081 705.944 1769.645 708.318 1770.22 711.67 1767.209 710.088 1764.199 711.67 1764.773 708.318 1762.338 705.944 1765.704 705.455zM1474.036 657.316c0 2.982-2.418 5.405-5.404 5.405-2.987 0-5.405-2.423-5.405-5.405 0-2.987 2.418-5.405 5.405-5.405C1471.618 651.911 1474.036 654.329 1474.036 657.316z"/><circle fill="none" stroke="#D6D8E9" stroke-width="1.8" stroke-linecap="round" stroke-linejoin="round" stroke-miterlimit="10" cx="1711.179" cy="397.6" r="1.544"/><path fill="none" stroke="#D6D8E9" stroke-width="1.8" stroke-linecap="round" stroke-linejoin="round" stroke-miterlimit="10" d="M1552.424,230.66c0,2.87-2.324,5.2-5.197,5.2c-2.875,0-5.201-2.33-5.201-5.2c0-2.875,2.326-5.2,5.201-5.2	C1550.1,225.46,1552.424,227.785,1552.424,230.66z"/><circle fill="none" stroke="#D6D8E9" stroke-width="1.8" stroke-linecap="round" stroke-linejoin="round" stroke-miterlimit="10" cx="1815.998" cy="80.298" r="1.484"/><path fill="none" stroke="#D6D8E9" stroke-width="1.8" stroke-linecap="round" stroke-linejoin="round" stroke-miterlimit="10" d="M1640.098 463.662L1648.501 472.068M1648.501 463.662L1640.098 472.068"/></svg>