<svg xmlns="http://www.w3.org/2000/svg" width="85" height="85"><path fill="#30323F" d="M4.741 71.068C2.573 71.068 1 72.671 1 74.882c0 2.228 1.569 3.782 3.816 3.782 1.135 0 2.034-.353 2.748-1.078.212-.23.236-.452.236-.537 0-.359-.269-.621-.64-.621-.187 0-.344.069-.523.235-.404.376-.937.757-1.822.757-1.229 0-2.229-.917-2.293-2.098h4.894c.533 0 .791-.248.791-.756 0-.15 0-.259-.03-.473-.262-1.892-1.547-3.025-3.436-3.025zm0 1.184c1.175 0 1.93.745 1.975 1.948H2.525c.11-1.113 1.056-1.948 2.216-1.948zm8.141-1.184c-.984 0-1.958.563-2.339 1.346v-.482c0-.75-.583-.787-.7-.787-.346 0-.715.206-.715.787v5.84c0 .777.621.817.745.817s.746-.04.746-.817v-3.131c0-1.363.775-2.313 1.886-2.313 1.075 0 1.598.702 1.598 2.147v3.298c0 .776.621.816.746.816.124 0 .745-.04.745-.816v-3.765c-.001-1.421-.713-2.94-2.712-2.94zm9.458.077c-.345 0-.594.2-.743.592l-2.04 5.106-2.024-5.106c-.158-.398-.407-.592-.759-.592-.411 0-.745.319-.745.712 0 .097.011.224.093.42l2.345 5.509c.279.667.739.805 1.076.805.336 0 .795-.14 1.076-.804l2.36-5.54c.08-.194.093-.336.093-.403-.002-.399-.316-.699-.732-.699zm4.335-.077c-.954 0-1.841.264-2.5.744-.224.154-.332.346-.332.587 0 .331.253.59.579.59a.809.809 0 0 0 .444-.156c.566-.375 1.098-.551 1.674-.551 1.103 0 1.735.557 1.735 1.529v.162c-2.475.004-4.991.301-4.991 2.443 0 1.541 1.323 2.231 2.636 2.231 1.045 0 1.88-.41 2.416-1.192v.376c0 .559.377.756.7.756.067 0 .67-.02.67-.756v-3.928c-.001-1.774-1.134-2.835-3.031-2.835zm1.286 3.998h.313v.344c0 1.251-.799 2.058-2.037 2.058-.336 0-1.433-.078-1.433-1.079.001-1.185 1.801-1.323 3.157-1.323zm5.626-2.573c.652 0 .686-.507.686-.607 0-.301-.18-.622-.686-.622h-1.342v-1.351c0-.603-.393-.817-.73-.817-.124 0-.746.04-.746.817v6.414c0 1.479.733 2.261 2.121 2.261.359 0 .708-.062.938-.169.263-.131.412-.345.412-.589a.572.572 0 0 0-.594-.59c-.066 0-.162.016-.267.046a1.246 1.246 0 0 1-.309.044c-.564 0-.827-.367-.827-1.155v-3.683l1.344.001zm4.93-1.425c-2.255 0-3.891 1.592-3.891 3.783 0 1.067.396 2.04 1.116 2.738.712.694 1.7 1.075 2.775 1.075 2.227 0 3.907-1.64 3.907-3.812 0-2.192-1.644-3.784-3.907-3.784zm0 6.338c-1.546 0-2.355-1.285-2.355-2.555 0-1.743 1.221-2.539 2.355-2.539s2.356.794 2.356 2.539c0 1.756-1.221 2.555-2.356 2.555z"/><path fill="#81B441" d="M54.23 71.511a2.067 2.067 0 0 0-.854-.554 3.311 3.311 0 0 0-1.062-.166 3.238 3.238 0 0 0-1.84.543 2.956 2.956 0 0 0-.655.598l-.034.043a1.929 1.929 0 0 0-.631-.731c-.434-.302-.99-.452-1.651-.452a2.86 2.86 0 0 0-.96.159 3.072 3.072 0 0 0-1.198.79v-.474a.347.347 0 0 0-.347-.346h-.36a.347.347 0 0 0-.347.345V78.313c0 .19.155.346.347.346h.36a.345.345 0 0 0 .347-.345v-.001l-.003-4.408c.05-.229.123-.455.218-.671.103-.242.245-.474.425-.688.179-.212.395-.388.639-.521.239-.131.528-.197.86-.197.246 0 .475.029.683.086.185.052.338.136.469.261.131.122.235.297.313.519.082.239.124.553.124.932v4.688c0 .19.156.347.347.347h.354a.347.347 0 0 0 .347-.347v-4.666c.006-.091.03-.202.073-.33a2.07 2.07 0 0 1 .188-.398c.081-.139.184-.273.303-.406a2.073 2.073 0 0 1 .942-.585c.194-.061.419-.095.707-.099.225 0 .438.027.629.084a1.1 1.1 0 0 1 .468.273c.132.133.238.32.316.562.084.259.128.598.128 1.006v4.559c0 .19.154.347.346.347h.353a.347.347 0 0 0 .347-.346V73.755c0-.501-.057-.938-.168-1.301a2.453 2.453 0 0 0-.523-.943zm7.691 6.411a4.647 4.647 0 0 1-.085-.666 4.899 4.899 0 0 1-.013-.364v-3.528c0-.417-.072-.792-.218-1.113a2.23 2.23 0 0 0-.615-.823 2.593 2.593 0 0 0-.916-.482 3.882 3.882 0 0 0-1.098-.153c-.422 0-.83.063-1.179.184a3.087 3.087 0 0 0-.937.507c-.262.21-.477.473-.632.77a2.06 2.06 0 0 0-.23.942c0 .188.146.341.335.346l.37.015a.343.343 0 0 0 .236-.098.335.335 0 0 0 .105-.251c0-.184.044-.353.132-.513.093-.168.222-.314.384-.437.171-.131.375-.233.61-.308.257-.078.522-.116.791-.114.604 0 1.066.136 1.373.403.295.261.439.624.439 1.113v.683h-1.348c-.538 0-1.028.059-1.462.171-.403.1-.787.266-1.137.49-.31.203-.567.478-.752.799a2.097 2.097 0 0 0-.268 1.036c0 .33.062.636.184.914.12.276.301.522.526.723.222.2.492.356.805.465.303.105.643.158 1.012.158a4.09 4.09 0 0 0 1.051-.125 3.43 3.43 0 0 0 1.437-.752c.021.187.055.353.097.498a.35.35 0 0 0 .334.25h.405a.347.347 0 0 0 .347-.347v-.059a.37.37 0 0 0-.028-.139 1.109 1.109 0 0 1-.055-.195zm-3.586-.17c-.227 0-.437-.034-.621-.101-.17-.06-.327-.15-.466-.268a1.152 1.152 0 0 1-.292-.381 1.022 1.022 0 0 1-.099-.449c0-.203.049-.383.15-.553.107-.177.267-.334.472-.463.223-.142.497-.252.819-.33a4.872 4.872 0 0 1 1.148-.124h1.326v1.251a2.603 2.603 0 0 1-.359.55 2.339 2.339 0 0 1-.537.465 2.578 2.578 0 0 1-.688.297 3.27 3.27 0 0 1-.853.106zm11.955-3.456l3.008-2.776a.347.347 0 0 0-.237-.6h-.504a.334.334 0 0 0-.235.093L69.1 73.978l-.244.229V68.31a.346.346 0 0 0-.346-.346h-.355a.346.346 0 0 0-.348.344v10.003c0 .19.156.346.348.346h.353a.347.347 0 0 0 .348-.345v-2.759l.654-.559 3.032 3.542a.338.338 0 0 0 .264.122h.465a.345.345 0 0 0 .347-.345v-.001a.328.328 0 0 0-.117-.257l-3.211-3.759zm-3.588-3.412a1.383 1.383 0 0 0-.28-.07 2.31 2.31 0 0 0-.342-.022c-.654 0-1.21.168-1.653.499-.108.08-.212.17-.308.267v-.29a.348.348 0 0 0-.348-.346h-.354a.346.346 0 0 0-.346.346v7.045c0 .19.154.347.346.347h.354a.35.35 0 0 0 .348-.347l-.002-4.574c.048-.268.128-.528.24-.776.102-.223.24-.427.408-.604.16-.164.352-.297.569-.388.217-.095.467-.142.745-.142.068 0 .138.003.198.011l.26.028a.35.35 0 0 0 .345-.304l.039-.313a.344.344 0 0 0-.219-.367zm17.233 7.087c-.028-.162-.172-.281-.384-.281h-.007a9.69 9.69 0 0 1-.326.041c-.091.01-.182.016-.272.016a1.4 1.4 0 0 1-.364-.043.388.388 0 0 1-.182-.117.792.792 0 0 1-.154-.308 2.382 2.382 0 0 1-.07-.65v-4.654h1.263c.19 0 .345-.156.345-.347v-.36a.345.345 0 0 0-.343-.346h-1.265v-1.555a.349.349 0 0 0-.348-.347h-.36a.347.347 0 0 0-.347.345v1.557h-.961a.348.348 0 0 0-.347.346v.358a.348.348 0 0 0 .347.347h.961v4.655c0 .379.038.706.111.971.078.284.198.519.36.697.167.188.372.319.609.394.212.065.452.1.713.1l.176-.003a3.98 3.98 0 0 0 .227-.015l.212-.023c.082-.01.164-.029.242-.057a.35.35 0 0 0 .225-.387l-.061-.334z"/><path fill="#81B441" d="M78.931 71.738a2.886 2.886 0 0 0-.969-.701 3.033 3.033 0 0 0-1.209-.246c-.466 0-.924.102-1.322.293a3.318 3.318 0 0 0-1.053.812c-.296.343-.53.753-.702 1.221a4.507 4.507 0 0 0-.255 1.534v.287c0 .553.088 1.068.263 1.532.166.447.414.86.732 1.217.307.34.679.614 1.095.807.422.194.877.293 1.358.293.289.002.577-.028.859-.093.25-.06.493-.147.722-.265.215-.109.415-.247.594-.41.173-.155.325-.331.459-.521a.347.347 0 0 0-.086-.479l-.248-.176a.345.345 0 0 0-.474.072 2.317 2.317 0 0 1-.402.408c-.26.203-.566.336-.893.387a3.163 3.163 0 0 1-.477.038 2.223 2.223 0 0 1-.986-.209 2.389 2.389 0 0 1-.764-.589 2.828 2.828 0 0 1-.515-.895 3.217 3.217 0 0 1-.188-1.117V74.9h4.957a.345.345 0 0 0 .347-.344v-.411c0-.484-.072-.936-.219-1.342a3.334 3.334 0 0 0-.624-1.065zm-4.385 2.119c.042-.206.104-.401.184-.586.125-.293.291-.55.488-.765.192-.209.423-.378.681-.497a1.99 1.99 0 0 1 .833-.176c.298 0 .58.061.814.176.24.119.45.282.622.484.176.21.312.455.41.731.07.201.114.412.135.63h-4.167v.003z"/><ellipse fill="#81B441" cx="42.5" cy="33.795" rx="27.716" ry="27.584"/><path fill="#FFF" d="M51.264 19.891c-.834-.459-3.218-.176-6.081.707-5.013 3.409-9.241 8.433-9.537 16.498-.054.193-.548-.025-.646-.086-1.353-2.582-1.89-5.3-.759-9.221.209-.349-.478-.779-.602-.655-.248.247-1.282 1.343-1.968 2.528-3.403 5.877-1.178 13.407 4.777 16.703 5.954 3.3 13.473 1.171 16.789-4.756 3.833-6.842.273-20.468-1.973-21.718z"/></svg>