<svg xmlns="http://www.w3.org/2000/svg" width="50" height="50"><g fill="#969cad"><path d="M38.529 6H34V2.75a1 1 0 0 0-2 0V6H18V2.75a1 1 0 0 0-2 0V6h-4.529C8.454 6 6 8.464 6 11.494v31.012C6 45.535 8.454 48 11.471 48H38.53c3.016 0 5.47-2.465 5.47-5.494V11.494C44 8.464 41.546 6 38.529 6zM11.471 8H16v3.25a1 1 0 0 0 2 0V8h14v3.25a1 1 0 1 0 2 0V8h4.529C40.443 8 42 9.567 42 11.494V18H8v-6.506C8 9.567 9.557 8 11.471 8zm27.058 38H11.471C9.557 46 8 44.433 8 42.506V20h34v22.506C42 44.433 40.443 46 38.529 46z"/><path d="M30.339 27.538l-8.767 8.769-2.012-2.012a.999.999 0 1 0-1.414 1.414l2.719 2.718a.997.997 0 0 0 1.414 0l9.474-9.475a1 1 0 0 0-1.414-1.414z"/></g></svg>
