<svg xmlns="http://www.w3.org/2000/svg" width="50" height="50"><g fill="#969cad"><path d="M32.196 28.105L25 35.303l-7.197-7.197a.999.999 0 1 0-1.414 1.414l7.904 7.904a.997.997 0 0 0 1.414 0l7.903-7.904a1 1 0 1 0-1.414-1.415z"/><path d="M40.998 17.961C40.942 9.186 33.788 2.062 25 2.062c-8.789 0-15.942 7.123-15.998 15.899-2.797.24-5.002 2.6-5.002 5.471V28l.001.053C4.585 39.203 13.809 47.938 25 47.938s20.414-8.734 20.998-19.885L46 23.432c0-2.871-2.205-5.231-5.002-5.471zM25 4.062c7.678 0 13.93 6.213 13.997 13.875H11.003C11.071 10.275 17.322 4.062 25 4.062zm19 23.912c-.541 10.075-8.883 17.964-19 17.964-10.118 0-18.459-7.889-19-17.964v-4.542c0-1.927 1.557-3.494 3.471-3.494H40.53c1.914 0 3.471 1.567 3.471 3.494v4.542z"/></g></svg>
