<svg xmlns="http://www.w3.org/2000/svg" width="50" height="50"><path fill="#253B80" d="M6.449 39.577c-.213 1.396-1.279 1.396-2.31 1.396h-.587l.412-2.606a.323.323 0 0 1 .32-.273h.269c.703 0 1.365 0 1.707.4.204.238.267.594.189 1.083M6 35.936H2.111a.54.54 0 0 0-.534.456L.004 46.365a.324.324 0 0 0 .321.374h1.857a.54.54 0 0 0 .534-.456l.424-2.689a.54.54 0 0 1 .534-.457h1.231c2.562 0 4.041-1.24 4.426-3.697.174-1.075.007-1.919-.496-2.51-.553-.651-1.533-.994-2.835-.994M15.029 43.157c-.179 1.063-1.023 1.779-2.101 1.779-.541 0-.973-.175-1.25-.503-.275-.326-.38-.791-.292-1.31.167-1.054 1.027-1.792 2.087-1.792.529 0 .958.176 1.241.509.284.334.397.803.315 1.317m2.596-3.625h-1.862a.324.324 0 0 0-.32.273l-.083.521-.13-.188c-.403-.586-1.302-.781-2.2-.781-2.058 0-3.815 1.559-4.158 3.746-.178 1.09.075 2.133.694 2.86.568.668 1.38.946 2.346.946 1.659 0 2.578-1.065 2.578-1.065l-.083.518a.324.324 0 0 0 .319.375h1.678a.54.54 0 0 0 .534-.456l1.006-6.374a.323.323 0 0 0-.319-.375M27.543 39.532h-1.871a.544.544 0 0 0-.447.238l-2.581 3.802-1.094-3.654a.543.543 0 0 0-.519-.386h-1.839a.326.326 0 0 0-.308.43l2.062 6.049-1.938 2.736a.324.324 0 0 0 .265.512h1.869a.542.542 0 0 0 .444-.232l6.224-8.984a.326.326 0 0 0-.267-.511"/><path fill="#179BD7" d="M34.188 39.577c-.211 1.396-1.277 1.396-2.309 1.396h-.587l.413-2.606a.32.32 0 0 1 .319-.273h.269c.701 0 1.365 0 1.707.4.204.238.267.594.188 1.083m-.449-3.641H29.85a.539.539 0 0 0-.534.456l-1.573 9.973a.324.324 0 0 0 .319.374h1.997a.377.377 0 0 0 .372-.319l.447-2.826a.539.539 0 0 1 .533-.457h1.229c2.562 0 4.042-1.24 4.428-3.697.175-1.075.007-1.919-.496-2.51-.551-.651-1.531-.994-2.833-.994M42.769 43.157c-.179 1.063-1.024 1.779-2.102 1.779-.539 0-.973-.175-1.251-.503-.274-.326-.378-.791-.291-1.31.168-1.054 1.026-1.792 2.086-1.792.529 0 .959.176 1.242.509.285.334.398.803.316 1.317m2.595-3.625h-1.861a.322.322 0 0 0-.319.273l-.083.521-.131-.188c-.402-.586-1.301-.781-2.199-.781-2.057 0-3.814 1.559-4.157 3.746-.178 1.09.075 2.133.693 2.86.568.668 1.38.946 2.346.946 1.658 0 2.578-1.065 2.578-1.065l-.084.518a.325.325 0 0 0 .322.375h1.676a.541.541 0 0 0 .534-.456l1.007-6.374a.326.326 0 0 0-.322-.375M47.56 36.208l-1.596 10.156a.323.323 0 0 0 .319.374h1.605a.539.539 0 0 0 .532-.456l1.575-9.973a.325.325 0 0 0-.32-.375h-1.797a.327.327 0 0 0-.318.274"/><g><path fill="#253B80" d="M19.255 31.069l.544-3.456-1.212-.027H12.8l4.022-25.5a.336.336 0 0 1 .112-.2.327.327 0 0 1 .214-.079h9.757c3.239 0 5.474.674 6.642 2.004.548.624.896 1.277 1.064 1.995.177.752.18 1.653.007 2.75l-.012.081v.703l.547.311c.462.245.827.523 1.107.844.469.534.771 1.212.899 2.016.133.827.089 1.811-.128 2.925-.25 1.281-.653 2.398-1.198 3.312a6.828 6.828 0 0 1-1.898 2.08c-.725.514-1.585.904-2.558 1.154-.941.245-2.016.369-3.196.369h-.759c-.543 0-1.07.196-1.484.546a2.298 2.298 0 0 0-.773 1.381l-.058.311-.961 6.091-.043.224c-.012.071-.032.105-.061.13a.165.165 0 0 1-.1.036h-4.687z"/><path fill="#179BD7" d="M35.672 8.717c-.028.186-.062.376-.1.572-1.287 6.607-5.689 8.89-11.312 8.89h-2.862c-.688 0-1.268.5-1.375 1.177l-1.465 9.296-.416 2.634a.735.735 0 0 0 .725.848h5.077c.601 0 1.112-.438 1.206-1.03l.05-.259.956-6.066.062-.333a1.22 1.22 0 0 1 1.206-1.032h.759c4.92 0 8.771-1.997 9.897-7.777.47-2.415.227-4.431-1.018-5.848a4.844 4.844 0 0 0-1.39-1.072"/><path fill="#222D65" d="M34.326 8.181a8.994 8.994 0 0 0-.608-.156 12.674 12.674 0 0 0-.643-.122 15.881 15.881 0 0 0-2.524-.185h-7.647a1.219 1.219 0 0 0-1.205 1.033l-1.627 10.305-.047.301a1.391 1.391 0 0 1 1.375-1.178h2.862c5.622 0 10.024-2.284 11.312-8.889.038-.195.07-.386.099-.572a6.845 6.845 0 0 0-1.058-.446 7.532 7.532 0 0 0-.289-.091"/><path fill="#253B80" d="M21.698 8.751a1.215 1.215 0 0 1 1.205-1.032h7.647c.906 0 1.752.06 2.524.185a10.368 10.368 0 0 1 1.251.277c.098.029.194.06.289.089a7 7 0 0 1 1.059.446c.383-2.441-.003-4.104-1.323-5.609C32.894 1.45 30.268.74 26.906.74H17.15c-.687 0-1.272.5-1.378 1.178L11.708 27.68a.839.839 0 0 0 .827.971h6.024l1.512-9.597 1.627-10.303z"/></g></svg>