<?xml version="1.0" encoding="utf-8"?><svg xmlns="http://www.w3.org/2000/svg" width="44" height="44"><path fill="none" stroke="#1DAFC2" stroke-width="2.6" stroke-linecap="round" stroke-linejoin="round" stroke-miterlimit="10" d="M30.246,7.707c-5.108-2.943-11.397-2.943-16.503,0.001 M7.701,13.749c-2.944,5.105-2.944,11.396,0,16.504 M36.285,30.25	c2.946-5.108,2.946-11.396,0-16.501 M13.741,36.292c5.107,2.946,11.396,2.942,16.503-0.002"/><circle fill="none" stroke="#1DAFC2" stroke-width="2.6" stroke-linecap="round" stroke-linejoin="round" stroke-miterlimit="10" cx="21.993" cy="22" r="8.25"/><g fill="#FFF" stroke="#1DAFC2" stroke-width="1.6" stroke-linecap="round" stroke-linejoin="round" stroke-miterlimit="10"><path opacity=".5" d="M27.828 27.834c-.518.503-1.097.936-1.728 1.282l5.416 9.381c1.449-.829 2.778-1.84 3.963-3.013 1.172-1.183 2.185-2.51 3.013-3.955l-9.382-5.421C28.761 26.74 28.33 27.319 27.828 27.834zM29.13 17.891l9.377-5.415c-.826-1.446-1.84-2.778-3.014-3.959-1.182-1.174-2.51-2.187-3.956-3.014l-5.416 9.381c.628.35 1.208.781 1.724 1.283C28.369 16.691 28.777 17.278 29.13 17.891zM8.524 8.518c-1.208 1.208-2.2 2.545-3.014 3.956l9.38 5.416c.353-.611.761-1.2 1.283-1.723.515-.502 1.096-.935 1.724-1.284l-5.416-9.379C11.036 6.33 9.704 7.343 8.524 8.518zM14.874 26.107l-9.378 5.416c.827 1.449 1.84 2.778 3.013 3.963 1.21 1.209 2.546 2.197 3.958 3.013l5.416-9.382c-.632-.35-1.21-.78-1.726-1.283C15.655 27.317 15.223 26.737 14.874 26.107z"/></g></svg>