<svg xmlns="http://www.w3.org/2000/svg" width="44" height="44"><g fill="none" stroke="#1DAFC2" stroke-linecap="round" stroke-linejoin="round" stroke-miterlimit="10"><path stroke-width="2.6" d="M21.997,7.51l-7.33-1.927c-2.026-0.535-3.668,1.561-3.668,4.676v19.706c0,3.116,1.644,6.07,3.667,6.605l7.333,1.93L21.997,7.51z M22,7.509l7.33-1.927c2.026-0.534,3.669,1.561,3.669,4.677v19.708c0,3.114-1.643,6.071-3.668,6.604l-7.332,1.931"></path><path opacity=".5" stroke-width="1.6" d="M11.323,8.021h-0.309c-3.045,0-5.515,2.487-5.515,5.554v19.366c0,3.068,2.469,5.558,5.515,5.558h21.972 c3.047,0,5.515-2.488,5.515-5.558V13.578c0-3.068-2.468-5.554-5.515-5.554h-0.31"></path></g></svg>