<?xml version="1.0" encoding="utf-8"?><svg xmlns="http://www.w3.org/2000/svg" width="2000" height="1340"><linearGradient id="a" gradientUnits="userSpaceOnUse" x1="1694.221" y1="-1604.437" x2="3364.22" y2="-3274.438" gradientTransform="translate(-1529.22 3109.438)"><stop offset="0" stop-color="#303243"/><stop offset=".5" stop-color="#43195f"/><stop offset="1" stop-color="#085892"/></linearGradient><path fill="url(#a)" d="M0 0h2000v1340H0V0z"/><linearGradient id="b" gradientUnits="userSpaceOnUse" x1="1511.258" y1="1285.964" x2="3113.713" y2="1285.964" gradientTransform="scale(1 -1) rotate(-21.549 -1481.448 2988.923)"><stop offset="0" stop-color="#1e0941"/><stop offset="1" stop-color="#40125b"/></linearGradient><path opacity=".25" fill="url(#b)" d="M1719.854 645.871c29.275-9.781 58.371-21.646 87.192-35.666 199.625-97.105 360.782-288.229 429.104-508.875 27.801-89.771 40.762-186.017 22.088-275.618-26.318-126.32-113.348-227.412-215.844-293.997-314.644-204.419-789.279-252.687-1137.029-55.118-154.225 87.617-283.004 253.67-286.988 435.304-2.153 98.573 31.854 192.473 78.812 274.516 199.749 349.015 627.395 591.718 1022.665 459.454z"/><path opacity=".35" fill="#CD0065" d="M1942.74 531.847c19.665-16.521 38.562-34.589 56.577-54.25 124.812-136.166 191.114-333.33 176.555-524.973-5.926-77.972-25.312-156.417-67.146-220.052-58.979-89.718-157.229-141.351-256.896-161.554-305.979-62.035-688.061 45.68-896.799 304.855C862.459-9.17 813.55 158.697 865.982 300.48c28.459 76.942 83.479 139.218 144.894 188.358 261.259 209.052 666.392 266.173 931.864 43.009z"/><path opacity=".1" fill="none" stroke="#CD0065" stroke-width="4" stroke-miterlimit="10" d="M1941.85 579.052c19.666-16.521 38.562-34.589 56.578-54.253 124.812-136.165 191.115-333.33 176.553-524.971-5.929-77.972-25.312-156.417-67.146-220.053-58.979-89.718-157.229-141.351-256.896-161.554-305.979-62.034-688.059 45.68-896.795 304.856-92.58 114.948-141.486 282.814-89.058 424.602 28.459 76.94 83.479 139.218 144.896 188.358 261.258 209.058 666.395 266.181 931.868 43.015z"/><linearGradient id="c" gradientUnits="userSpaceOnUse" x1="1938.123" y1="1719.876" x2="2003.76" y2="1719.876" gradientTransform="matrix(1 0 0 -1 -81.22 2539.938)"><stop offset="0" stop-color="#0777bd"/><stop offset="1" stop-color="#1daec2"/></linearGradient><path fill="url(#c)" d="M1872.605 848.623h34.234a6.957 6.957 0 0 0 6.859-5.779l8.84-51.344h-65.637l8.838 51.344a6.974 6.974 0 0 0 6.866 5.779z"/><path fill="#02B9AA" d="M1978.259 566.431c-11.25-12.887-18.062-28.955-21.312-45.752-7.31-37.769-27.33-64.971-52.107-66.142-33.022-1.556-61.988 43.721-64.691 101.119-2.702 57.401 56.298 177.763 68.83 179.088 11.065 1.177 81.623-92.562 83.058-123.003.855-18.313-4.631-34.838-13.778-45.31z"/><path fill="#57E6DE" d="M1921.237 527.287s.176 1.021.502 2.938l.604 3.521c.25 1.39.509 2.981.752 4.779l.854 5.945c.309 2.164.543 4.517.85 7.021l.447 3.883.373 4.122c.236 2.824.57 5.788.732 8.896.182 3.104.438 6.335.582 9.687.125 3.354.254 6.815.385 10.379l.131 10.975c-.006 3.743-.092 7.563-.135 11.459-.211 7.771-.519 15.812-1.104 23.966-.146 2.038-.24 4.09-.421 6.139l-.554 6.164-.554 6.188c-.184 2.062-.457 4.123-.68 6.188-.498 4.121-.887 8.264-1.475 12.354l-1.693 12.229c-.615 4.041-1.3 8.039-1.938 11.996-.332 1.979-.623 3.946-.979 5.895l-1.082 5.783c-.729 3.824-1.396 7.602-2.141 11.271l-2.269 10.748-1.09 5.168c-.394 1.689-.772 3.355-1.149 4.996-.755 3.265-1.479 6.416-2.185 9.439l-9.33 40.354-5.83-1.418 10.242-40.135 2.396-9.395 1.252-4.931 1.197-5.108 2.496-10.636c.819-3.635 1.565-7.366 2.377-11.153.396-1.896.802-3.808 1.207-5.729.396-1.928.731-3.877 1.106-5.834.722-3.92 1.485-7.881 2.189-11.89.65-4.015 1.309-8.062 1.962-12.122.683-4.062 1.153-8.162 1.741-12.256.271-2.049.588-4.092.815-6.144l.688-6.146c.229-2.048.459-4.089.688-6.12.225-2.037.364-4.074.555-6.104.771-8.102 1.256-16.096 1.642-23.838.133-3.873.307-7.682.396-11.412l.119-10.936a6163.35 6163.35 0 0 1-.15-10.354c-.062-3.345-.25-6.569-.359-9.674-.094-3.104-.354-6.063-.526-8.889l-.279-4.124-.362-3.888c-.246-2.511-.433-4.862-.687-7.029l-.721-5.956a111.892 111.892 0 0 0-.646-4.794l-.521-3.537c-.135-.976-.275-1.954-.42-2.931z"/><path fill="#03D6C2" d="M1811.188 680.16c-13.44-36.734-12.944-70.687 1.105-75.828 12.486-4.566 31.479 15.162 44.982 45.4 2.369 5.303 6.512 9.737 11.836 12.059 10.436 4.547 18.582 18.68 19.565 35.855 1.229 21.465-16.846 47.521-16.846 47.521s-47.357-28.696-60.642-65.007z"/><path fill="#57E6DE" d="M1822.425 624.289l3.343 6.703a496.32 496.32 0 0 1 3.791 7.717l4.84 10.053c1.726 3.705 3.596 7.719 5.571 11.965 1.915 4.271 3.935 8.783 6.021 13.445 1.062 2.322 2.073 4.719 3.097 7.144l3.107 7.344c2.146 4.922 4.087 10.021 6.119 15.082.994 2.539 2.043 5.062 2.99 7.604.936 2.553 1.866 5.094 2.793 7.611l2.75 7.498c.896 2.479 1.661 4.969 2.479 7.395l2.364 7.162 1.147 3.474c.375 1.188.687 2.299 1.021 3.43l1.933 6.539c.64 2.104 1.134 4.203 1.673 6.188l1.506 5.709c.418 1.826.812 3.56 1.188 5.188.741 3.256 1.411 6.092 1.805 8.465.87 4.729 1.37 7.434 1.37 7.434l-3.957.591-1.184-7.332c-.328-2.342-.927-5.154-1.584-8.388-.33-1.616-.685-3.336-1.056-5.147l-1.354-5.662c-.488-1.973-.922-4.028-1.512-6.153l-1.781-6.584c-.309-1.117-.607-2.302-.937-3.408l-1.062-3.479-2.188-7.176c-.76-2.431-1.467-4.924-2.301-7.408-.85-2.479-1.701-4.994-2.565-7.523l-2.607-7.649c-.886-2.562-1.873-5.094-2.807-7.647-1.91-5.095-3.729-10.226-5.759-15.185l-2.938-7.4c-.963-2.438-1.921-4.854-2.924-7.198l-5.706-13.562-5.293-12.08c-1.688-3.719-3.231-7.129-4.604-10.15a534.311 534.311 0 0 0-3.61-7.801 1337.078 1337.078 0 0 0-3.179-6.809z"/><path fill="#19CFCB" d="M1915.774 657.074s-3.214 7.646-7.332 19.356c-4.123 11.709-9.123 27.506-12.938 43.576a349.915 349.915 0 0 0-2.652 12.021l-1.127 5.922-.975 5.797c-.57 3.66-1.062 7.332-1.479 11.016-.168 1.754-.355 3.459-.496 5.107-.111 1.597-.229 3.188-.346 4.778-.138 3.066-.265 5.873-.248 8.357-.062 2.484.079 4.646.108 6.424.066 1.771.207 3.162.262 4.107l.103 1.451-4.982.364-.051-1.521c-.021-.989-.107-2.442-.109-4.293.037-1.845-.021-4.089.138-6.646.082-2.562.319-5.438.577-8.571l.537-4.871c.205-1.681.463-3.407.703-5.188a263.292 263.292 0 0 1 1.918-11.117l1.207-5.825 1.363-5.937c.973-3.979 2.002-8.013 3.129-12.013 4.451-16.021 10.059-31.655 14.627-43.225 4.565-11.551 8.063-19.069 8.063-19.069z"/><path fill="#D3D5E6" d="M1857.534 800.51h64.371a4.156 4.156 0 0 0 4.16-4.153v-9.921a4.157 4.157 0 0 0-4.156-4.157h-64.375a4.151 4.151 0 0 0-4.154 4.149v9.924a4.153 4.153 0 0 0 4.148 4.158h.006z"/><g opacity=".35" fill="#CD0065"><circle cx="941.781" cy="331.122" r="3.064"/><circle cx="811.614" cy="431.453" r="3.064"/><circle cx="1186.007" cy="596.677" r="6.128"/><circle cx="897.296" cy="449.717" r="6.128"/><circle cx="1665.5" cy="632.499" r="6.128"/><circle cx="966.608" cy="635.883" r="6.128"/><circle cx="1069.399" cy="505.531" r="3.064"/><circle cx="1038.51" cy="661.848" r="3.063"/><circle cx="1249.277" cy="670.26" r="3.064"/><circle cx="1296.5" cy="757.499" r="3.064"/><circle cx="966.711" cy="521.162" r="3.063"/><circle cx="1364.711" cy="641.162" r="3.063"/><circle cx="858.474" cy="251.01" r="3.063"/><circle cx="818.699" cy="175.237" r="3.064"/><circle cx="851.745" cy="301.809" r="6.128"/><circle cx="1235.5" cy="566.5" r="3.064"/><circle cx="1518.191" cy="728.948" r="3.064"/><circle cx="859.75" cy="107.375" r="3.064"/><circle cx="1736.5" cy="573.5" r="3.064"/></g><g opacity=".35" fill="#02B9AA"><circle cx="1758.175" cy="637.058" r="3.063"/><circle cx="1695.885" cy="702.673" r="3.065"/><circle cx="1558.616" cy="679.622" r="3.064"/><circle cx="1975.148" cy="502.253" r="6.128"/><circle cx="1827.186" cy="765.219" r="6.128"/><circle cx="1817.047" cy="508.34" r="3.064"/><path d="M1989.508 694.523a3.065 3.065 0 1 1-4.63 4.012l-.054-.062a3.066 3.066 0 0 1 4.684-3.95z"/><circle cx="1863.988" cy="399.183" r="6.128"/><circle cx="1912.57" cy="261.268" r="3.064"/><path d="M1440.678 738.76a3.067 3.067 0 0 1-6.119.388l-.004-.086a3.067 3.067 0 0 1 6.123-.302z"/></g></svg>