<?xml version="1.0" encoding="utf-8"?><svg xmlns="http://www.w3.org/2000/svg" width="200" height="345"><path fill="none" stroke="#FFC20C" stroke-width="2" d="M99.999 192.99C79.014 192.99 62 216.768 62 246.102v85.908"/><path fill="none" stroke="#FFC20C" stroke-width="2" d="M99.999 192.99c-12.701 0-23 23.777-23 53.111v85.903M95 298l-3 33.729"/><path fill="none" stroke="#FFC20C" stroke-width="2" d="M99.999 192.99c-2.853 0-4.436 8.602-4.774 10.193-1.875 8.826-2.489 17.981-2.818 26.979-.391 10.709-.166 20.862 1.593 31.451m20.713 44.75c-1.609 7.808-4.584 15.231-7.273 22.709M99.999 192.99c2.897 0 4.619 8.814 4.979 10.441 2.013 9.062 2.814 18.433 3.774 27.649.888 8.519 1.597 16.782 3.246 25.198"/><path fill="none" stroke="#FFC20C" stroke-width="2" d="M99.999 192.99c9.399 0 14.943 11.468 17.532 18.706 11.749 32.851 7.851 69.788 6.468 103.971l-1 16.338"/><path fill="none" stroke="#FFC20C" stroke-width="2" d="M99.999 192.99c20.985 0 38.001 23.777 38.001 53.111v85.905"/><path fill="none" stroke="#FFC20C" stroke-width="2" d="M99.999 192.99C70.175 192.99 46 216.768 46 246.102v85.908m53.999-139.02c29.823 0 54.001 23.777 54.001 53.111v85.903M46.991 298h33.446l21.495 4 22.983-4h29.093M50.486 226h100.028M45.75 260.92c10.818-.238 21.636-.568 32.456-1.002 15.911-.639 31.319-1.336 47.229-1.961-17.881 7.05-12.117 8.552-2.447 9.027 10.396.511 20.82.803 31.262.916"/><g fill="none" stroke="#FFC20C" stroke-width="2"><ellipse cx="100" cy="181.116" rx="5.863" ry="5.819"/><path d="M100 191.924v-4.988"/></g><path fill="#FFC20C" d="M46.992 332h105.016v10H46.992v-10z"/><path fill="#946FAD" d="M158 331.999c0 2.763-2.158 5.001-4.82 5.001H46.82c-2.663 0-4.82-2.239-4.82-5.001 0-2.763 2.157-4.999 4.82-4.999h106.36c2.662-.002 4.82 2.236 4.82 4.999z"/><path fill="none" stroke="#FFC20C" stroke-width="2" d="M100 178V0"/><g fill="#FFC20C"><circle opacity=".35" cx="19.232" cy="109" r="6.128"/><circle opacity=".35" cx="73.503" cy="152.583" r="3.064"/><circle opacity=".35" cx="131.06" cy="273.739" r="3.064"/><circle opacity=".35" cx="188.938" cy="193.485" r="3.063"/><circle opacity=".35" cx="68.726" cy="78.823" r="3.064"/></g><path fill="#946FAD" d="M80.687 263.874l35.17 8.56-4.543 33.694-35.17-8.56z"/><path fill="#FFC20C" d="M108.452 284.287c1.544.376 2.583 2.247 2.321 4.181-.26 1.933-1.723 3.195-3.266 2.819-1.545-.376-2.585-2.246-2.324-4.18.262-1.934 1.724-3.197 3.269-2.82z"/></svg>