<?xml version="1.0" encoding="utf-8"?><svg xmlns="http://www.w3.org/2000/svg" width="224" height="52"><path fill="none" stroke="#FFC113" stroke-width="1.5" stroke-linecap="round" stroke-miterlimit="10" d="M8.871 45.068c-.399-2.15-.3-4.137.192-5.941.492-1.807 1.378-3.432 2.554-4.863 1.176-1.43 2.642-2.664 4.294-3.688a23.11 23.11 0 0 1 5.409-2.424 25.085 25.085 0 0 1 3.471-.804c1.184-.185 2.386-.28 3.583-.267s2.387.137 3.547.391c1.161.254 2.291.637 3.366 1.172.66.328 1.437.826 2.184 1.441.747.613 1.464 1.342 2.004 2.129.54.787.902 1.631.94 2.479.037.846-.25 1.693-1.011 2.488-.59.615-1.304.928-2.074 1.025-.771.1-1.599-.02-2.417-.266s-1.627-.623-2.359-1.041a14.415 14.415 0 0 1-1.902-1.301c-.827-.676-1.601-1.443-2.303-2.279s-1.332-1.744-1.872-2.701c-.54-.955-.99-1.961-1.331-2.996a14.794 14.794 0 0 1-.68-3.167 12.408 12.408 0 0 1 .137-3.509 11.06 11.06 0 0 1 1.089-3.141c3.246-6.141 10.958-7.36 17.227-7.642 3.101-.139 6.206-.198 9.31-.239a102.85 102.85 0 0 1 9.568.309"/><path fill="none" stroke="#FFC113" stroke-width="1.5" stroke-linecap="round" stroke-linejoin="round" stroke-miterlimit="10" d="M2.228 40.643c3.721 2.326 4.349 6.604 7.403 9.482 1.046-3.027 3.443-9.07 6.125-11.113"/><g fill="#FFC113"><path d="M77.162 8.476a.764.764 0 0 0-.577-.045c-.883.291-2.192.621-3.889.98l-2.813.587.025-.172c.127-.763.2-1.292.222-1.609.069-.643.113-1.106.131-1.39.171-.083.354-.166.547-.249l.611-.255c.189-.078.417-.161.685-.25l.667-.223c.156-.055.385-.128.688-.218l.653-.201c.137-.034.375-.096.718-.188l.666-.184c.114-.023.366-.08.755-.171.39-.092.625-.149.71-.174a.79.79 0 0 0 .452-.351.722.722 0 0 0 .082-.572.748.748 0 0 0-.345-.459.74.74 0 0 0-.593-.083c-.05.017-.305.082-.767.195l-.899.223-.778.22a49.51 49.51 0 0 0-.892.24l-.781.24c-.367.115-.66.212-.877.292-.216.08-.472.176-.774.293l-.584.25a8.35 8.35 0 0 0-.072-.474.365.365 0 0 0-.028-.151l-.044-.109a.815.815 0 0 0-.251-.295c-.126-.088-.27-.135-.503-.135h-.039a.867.867 0 0 0-.439.221 1.086 1.086 0 0 0-.179.302 1.459 1.459 0 0 0-.04.405v.306l-.017.119a.78.78 0 0 0 .173.505c.015.432-.026 1.164-.121 2.175-.034.293-.107.8-.219 1.52-.063.375-.111.68-.145.912a.79.79 0 0 0-.171.714c.02.06.044.117.071.17-.131 1.458.008 2.654.413 3.556.308.679.919 1.14 1.814 1.369.436.115.932.173 1.475.173a10.13 10.13 0 0 0 3.275-.577c.777-.274 1.37-.6 1.76-.966a.718.718 0 0 0 .244-.524.744.744 0 0 0-.196-.54.732.732 0 0 0-.556-.245.744.744 0 0 0-.513.2c-.24.229-.673.455-1.291.671a7.937 7.937 0 0 1-1.975.431 7.714 7.714 0 0 1-.775.042c-.404 0-.759-.041-1.055-.122-.436-.119-.713-.305-.823-.554-.288-.627-.389-1.522-.301-2.708.439-.09 1.546-.324 3.322-.701 1.78-.374 3.143-.719 4.046-1.024a.715.715 0 0 0 .443-.374.752.752 0 0 0 .046-.574.7.7 0 0 0-.372-.444zM85.555 9.041c-.394-.62-.869-1.057-1.417-1.301a2.565 2.565 0 0 0-1.712-.111 3.01 3.01 0 0 0-.801.352v-.142a.737.737 0 0 0-.221-.541c-.146-.146-.328-.221-.541-.221s-.396.074-.541.221-.22.328-.22.541c0 .272.005.891.038 1.764-.056.11-.111.215-.173.33-.292.642-.472 1.429-.536 2.338-.063.904-.025 1.687.11 2.284l.001.142c.013.109.025.193.035.245.026.169.074.317.152.457.172.251.416.385.773.385h.009a.867.867 0 0 0 .731-.468c.071-.127.113-.281.127-.471l-.005-.229c.13-.591.196-.94.208-1.104.044-.874.062-2.035.052-3.451.359-.518.762-.846 1.196-.974.106-.03.21-.045.31-.045.428 0 .81.271 1.167.827.42.659.656 1.626.699 2.873a32.84 32.84 0 0 1-.017 1.739 243.019 243.019 0 0 0-.051 1.689c0 .213.074.395.22.541.146.146.328.22.541.22s.395-.074.541-.221a.74.74 0 0 0 .22-.541c0-.226.011-.774.034-1.64.034-.752.04-1.371.017-1.836-.056-1.525-.375-2.753-.946-3.652zM96.232 12.069c.583-1.339.913-2.759.981-4.224.023-.696.003-1.316-.06-1.841-.063-.523-.2-1.149-.405-1.853a5.993 5.993 0 0 0-.42-1.141 4.93 4.93 0 0 0-.236-.451 1.346 1.346 0 0 0-.161-.201.965.965 0 0 0-.238-.173.793.793 0 0 0-.357-.09.743.743 0 0 0-.43.143.837.837 0 0 0-.274.353 1.799 1.799 0 0 0-.04.141 3.46 3.46 0 0 0-.035.205 2.75 2.75 0 0 0-.038.501c-.022.321-.034.756-.034 1.301a83.599 83.599 0 0 0-.018 1.979c.009.823.027 1.593.051 2.308a5.01 5.01 0 0 0-.337-.234 2.902 2.902 0 0 0-1.611-.498c-.482 0-.989.123-1.508.366-.878.422-1.666 1.13-2.34 2.108-.665.979-1.014 1.925-1.037 2.806a2.442 2.442 0 0 0 .352 1.423c.263.425.671.729 1.215.901a5.933 5.933 0 0 0 1.788.298c.568 0 1.113-.102 1.619-.303.875-.348 1.644-.917 2.325-1.739.257 1.571.613 3.018 1.062 4.311.076.197.208.34.393.425a.749.749 0 0 0 .573.024c.2-.07.345-.2.43-.386a.784.784 0 0 0 .033-.575c-.588-1.671-1.006-3.651-1.243-5.884zm-7.043 1.54c.021-.594.279-1.263.764-1.984.521-.75 1.113-1.288 1.758-1.6.305-.145.595-.219.86-.219.28 0 .535.078.78.239.401.264.682.54.835.821.151.276.211.625.18 1.052 0 .133.029.254.087.364-.138.245-.285.47-.439.673-.855 1.162-1.836 1.727-3 1.727-.41 0-.847-.073-1.298-.217-.369-.119-.536-.392-.527-.856zM100.987 2.688a.773.773 0 0 0-.249-.578.807.807 0 0 0-.572-.234.763.763 0 0 0-.57.25.8.8 0 0 0-.233.568c.056 2.023.079 4.389.067 7.031-.011 2.632-.113 4.977-.305 6.974a.79.79 0 0 0 .189.576.79.79 0 0 0 .629.297.773.773 0 0 0 .503-.185.833.833 0 0 0 .301-.553 67.124 67.124 0 0 0 .29-5.821c.011-1.185.017-2.039.017-2.561 0-.521-.011-1.557-.034-3.105a440.78 440.78 0 0 1-.033-2.659zM109.68 13.879a5.075 5.075 0 0 0-.123-.008.76.76 0 0 0-.456.147c-.528.385-.976.651-1.334.792-.312.127-.695.191-1.138.191l-.104-.001c-.688-.032-1.238-.213-1.633-.541a2.295 2.295 0 0 1-.72-1.071c1.963-.206 3.535-1.017 4.675-2.415.551-.685.741-1.335.562-1.936-.166-.536-.584-.933-1.249-1.184a4.561 4.561 0 0 0-1.47-.233l-.111.001c-.564.012-1.056.096-1.464.252-.774.31-1.405.864-1.874 1.647a5.555 5.555 0 0 0-.771 2.344.74.74 0 0 0-.365.185.71.71 0 0 0-.244.534.736.736 0 0 0 .196.565.713.713 0 0 0 .485.251l.012.004a4.03 4.03 0 0 0 1.215 2.171c.662.615 1.572.945 2.702.98.1.005.198.007.294.007.584 0 1.107-.093 1.552-.277.505-.208 1.076-.542 1.692-.987a.735.735 0 0 0 .326-.522.81.81 0 0 0-.136-.584.737.737 0 0 0-.519-.312zm-3.017-4.889c.001 0 .001 0 0 0l.001.196c.356 0 .678.05.954.149.25.095.289.164.289.164 0 .003.014.121-.289.476-.855 1.061-2.053 1.68-3.562 1.842a3.829 3.829 0 0 1 .522-1.468c.304-.498.683-.839 1.129-1.015.224-.092.528-.141.904-.146l.052-.198zM117.701 8.426l-.388-.287a2.637 2.637 0 0 0-.383-.255c-.253-.139-.601-.23-1.069-.279l-.15-.004c-.361 0-.773.076-1.227.227a5.809 5.809 0 0 0-1.418.697c-.482.33-.883.725-1.19 1.174-.324.473-.438.987-.338 1.524.137.771.818 1.411 2.026 1.902.229.092.635.235 1.215.428.406.144.684.253.821.328.438.235.53.394.524.422-.019.042-.076.133-.26.284a2.047 2.047 0 0 1-.615.324c-.314.12-.662.213-1.033.279a4.89 4.89 0 0 1-.555.049l-.666.036a.815.815 0 0 0-.492.268.693.693 0 0 0-.178.555.776.776 0 0 0 .261.51c.14.125.306.188.495.188l.086-.005a1.23 1.23 0 0 1 .164-.022c.063-.005.135-.008.213-.008a.763.763 0 0 0 .204-.017c.283-.012.519-.036.705-.071a8.057 8.057 0 0 0 1.312-.333c.961-.36 1.562-.876 1.787-1.539a1.53 1.53 0 0 0-.146-1.285c-.229-.382-.602-.71-1.107-.975-.201-.106-.537-.244-1.034-.421-.551-.18-.927-.309-1.125-.386-.919-.378-1.097-.655-1.12-.784-.024-.138.033-.304.176-.504.143-.225.387-.45.725-.672a4.407 4.407 0 0 1 1.006-.504c.281-.094.514-.143.775-.143h.037c.329.014.425.059.461.081.041.021.112.067.211.136l.442.323a.708.708 0 0 0 .564.128c.199-.038.361-.145.483-.32s.165-.366.126-.569a.736.736 0 0 0-.325-.48zM125.385 8.426l-.387-.287a2.693 2.693 0 0 0-.383-.255c-.254-.139-.601-.23-1.07-.279l-.15-.004c-.361 0-.773.076-1.227.227a5.844 5.844 0 0 0-1.418.697c-.482.33-.883.725-1.19 1.174-.324.473-.438.987-.338 1.524.137.771.817 1.411 2.026 1.902.229.092.635.235 1.215.428.407.144.684.253.822.328.438.235.529.394.523.422-.018.042-.076.133-.259.284a2.054 2.054 0 0 1-.616.324c-.314.12-.662.213-1.032.279-.13.022-.315.038-.556.049l-.666.036a.815.815 0 0 0-.492.268.696.696 0 0 0-.178.555c.023.203.11.374.262.51a.719.719 0 0 0 .494.188l.086-.005c.049-.01.104-.018.165-.022.063-.005.134-.008.212-.008a.778.778 0 0 0 .205-.017c.283-.012.519-.036.705-.071a8.018 8.018 0 0 0 1.311-.333c.961-.36 1.562-.876 1.787-1.539a1.526 1.526 0 0 0-.146-1.285c-.229-.382-.602-.71-1.106-.975-.201-.106-.538-.244-1.034-.421-.551-.18-.928-.309-1.125-.386-.919-.378-1.097-.655-1.121-.784-.023-.138.033-.304.176-.504.144-.225.387-.45.725-.672a4.427 4.427 0 0 1 1.006-.504c.281-.094.514-.143.775-.143h.037c.33.014.426.059.462.081.04.021.112.067.21.136l.443.323a.705.705 0 0 0 .563.128.745.745 0 0 0 .484-.32.736.736 0 0 0-.2-1.049zM139.708 8.554a2.619 2.619 0 0 0-1.744-1.065 3.337 3.337 0 0 0-.541-.045c-.884 0-1.704.377-2.441 1.124a5.689 5.689 0 0 0-.433.512 104.81 104.81 0 0 1-.09-1.682.742.742 0 0 0-.253-.506.756.756 0 0 0-.538-.196h-.003a.716.716 0 0 0-.523.244.792.792 0 0 0-.204.554c.196 3.251.237 4.108.25 4.186a17.744 17.744 0 0 0-.834 3.172c-.188 1.112-.277 2.036-.267 2.745l.001.777c-.012.436-.012.797 0 1.089.071 1.101.381 1.85.922 2.228a.807.807 0 0 0 .449.142c.013 0 .113-.008.127-.011a.871.871 0 0 0 .406-.207.999.999 0 0 0 .207-.308c.055-.107.099-.251.135-.432.07-.28.135-.66.191-1.13a29.68 29.68 0 0 0 .206-3.151v-1.009a7.311 7.311 0 0 0 1.916.272c.146 0 .289-.005.432-.016 1.233-.094 2.181-.579 2.815-1.44.346-.465.581-1.072.699-1.807a6.135 6.135 0 0 0-.035-2.073 4.699 4.699 0 0 0-.85-1.967zm-4.978 4.754l-.047-1.316c.408-1.047.873-1.842 1.385-2.364.445-.456.904-.677 1.4-.677.086 0 .174.007.257.02.324.059.595.239.827.551.242.326.418.757.524 1.272.087.543.092 1.072.017 1.571-.074.487-.211.876-.404 1.151-.365.489-.93.757-1.726.821a4.552 4.552 0 0 1-.353.013 5.875 5.875 0 0 1-1.88-.335v-.707zM149.776 9.49a.934.934 0 0 0 .121-.091.72.72 0 0 0 .243-.523.747.747 0 0 0-.203-.55.97.97 0 0 1-.081-.094l-.136-.187a1.729 1.729 0 0 0-.518-.497 3.055 3.055 0 0 0-1.587-.431c-.46 0-.956.094-1.475.279-.989.36-1.896.984-2.699 1.857a7.187 7.187 0 0 0-.952 1.355 5.596 5.596 0 0 0-.564 1.542 3.552 3.552 0 0 0 .062 1.675 3.85 3.85 0 0 0 .878 1.561 3.594 3.594 0 0 0 1.754 1.079c.384.102.769.154 1.146.154.275 0 .553-.028.824-.083a5.836 5.836 0 0 0 1.814-.705 5.446 5.446 0 0 0 2.046-2.161c.478-.913.55-1.873.216-2.854-.161-.456-.46-.901-.889-1.326zm-2.159-.857c.164 0 .319.021.466.064a.826.826 0 0 0-.169.147.738.738 0 0 0-.195.54.72.72 0 0 0 .248.527l.702.602.243.251c.084.089.147.174.189.254.047.088.092.191.133.304.198.563.148 1.124-.151 1.713-.304.597-.794 1.095-1.468 1.486a3.547 3.547 0 0 1-1.973.572h-.006c-.686-.016-1.229-.253-1.659-.726a2.168 2.168 0 0 1-.577-1.248 2.825 2.825 0 0 1 .223-1.43 4.92 4.92 0 0 1 .95-1.422c.62-.686 1.319-1.171 2.079-1.442.352-.127.678-.192.965-.192zM158.195 8.426l-.389-.287a2.637 2.637 0 0 0-.383-.255c-.252-.139-.6-.23-1.069-.279l-.149-.004c-.361 0-.774.076-1.227.227a5.809 5.809 0 0 0-1.418.697c-.483.33-.885.725-1.191 1.174-.324.473-.438.987-.338 1.524.137.771.818 1.411 2.026 1.902.229.092.636.235 1.215.428.407.144.685.253.821.328.439.235.53.394.525.422-.02.042-.077.133-.26.284a2.06 2.06 0 0 1-.615.324c-.314.12-.662.213-1.033.279a4.934 4.934 0 0 1-.556.049l-.666.036a.813.813 0 0 0-.491.268.69.69 0 0 0-.178.555.774.774 0 0 0 .26.51c.14.125.307.188.496.188l.085-.005c.05-.01.104-.018.165-.022a2.68 2.68 0 0 1 .213-.008.754.754 0 0 0 .203-.017c.283-.012.52-.036.705-.071a8.03 8.03 0 0 0 1.312-.333c.961-.36 1.561-.876 1.786-1.539a1.523 1.523 0 0 0-.146-1.285c-.229-.382-.601-.71-1.106-.975-.201-.106-.537-.244-1.035-.421-.551-.18-.926-.309-1.125-.386-.918-.378-1.096-.655-1.119-.784-.025-.138.032-.304.175-.504.144-.225.387-.45.725-.672a4.407 4.407 0 0 1 1.006-.504c.281-.094.514-.143.775-.143h.038c.328.014.424.059.461.081.041.021.111.067.211.136l.441.323a.71.71 0 0 0 .564.128.738.738 0 0 0 .483-.32.738.738 0 0 0-.197-1.049zM165.879 8.426l-.388-.287a2.637 2.637 0 0 0-.383-.255c-.253-.139-.601-.23-1.069-.279l-.15-.004c-.361 0-.773.076-1.227.227a5.809 5.809 0 0 0-1.418.697c-.482.33-.884.725-1.191 1.174-.324.473-.438.987-.338 1.524.137.771.818 1.411 2.027 1.902.229.092.635.235 1.215.428.406.144.684.253.821.328.438.235.53.394.524.422-.019.042-.076.133-.26.284a2.047 2.047 0 0 1-.615.324c-.314.12-.662.213-1.033.279a4.89 4.89 0 0 1-.555.049l-.666.036a.815.815 0 0 0-.492.268.693.693 0 0 0-.178.555.776.776 0 0 0 .261.51c.14.125.306.188.495.188l.086-.005a1.23 1.23 0 0 1 .164-.022c.063-.005.135-.008.213-.008a.763.763 0 0 0 .204-.017c.283-.012.519-.036.705-.071a8.057 8.057 0 0 0 1.312-.333c.961-.36 1.562-.876 1.787-1.539a1.53 1.53 0 0 0-.146-1.285c-.229-.382-.602-.71-1.107-.975-.201-.106-.537-.244-1.034-.421-.551-.18-.927-.309-1.125-.386-.919-.378-1.097-.655-1.12-.784-.024-.138.033-.304.176-.504.143-.225.387-.45.725-.672a4.407 4.407 0 0 1 1.006-.504c.281-.094.514-.143.775-.143h.037c.329.014.425.059.461.081.041.021.112.067.211.136l.442.323a.708.708 0 0 0 .564.128c.199-.038.361-.145.483-.32s.165-.366.126-.569a.736.736 0 0 0-.325-.48zM169.859 7.585c-.142-.122-.305-.184-.541-.184h-.012c-.209.016-.383.105-.52.265s-.199.343-.184.543c.214 3.054.322 5.389.322 6.939 0 .214.074.396.22.541.146.146.328.22.541.22s.396-.074.542-.22a.742.742 0 0 0 .219-.541c0-1.598-.108-3.964-.322-7.035a.738.738 0 0 0-.265-.528zM169.564 6.493a.74.74 0 0 0 .221-.541c0-.013 0-.025-.002-.038l.125-.13.318-.52a.619.619 0 0 0 .088-.495.638.638 0 0 0-.291-.414.643.643 0 0 0-.5-.085.628.628 0 0 0-.407.291 2.413 2.413 0 0 0-.149.234 1.033 1.033 0 0 1-.061.103c-.031.043-.053.08-.041.08l-.08.075a1.544 1.544 0 0 0-.124.112c-.04.041-.086.081-.152.136a.638.638 0 0 0-.179.319.836.836 0 0 0-.067.333c0 .213.074.395.22.541.146.146.328.22.541.22s.394-.075.54-.221zM177.568 7.317a4.158 4.158 0 0 0-.572-.044c-.174 0-.327.017-.444.046-1.062.2-1.954.7-2.659 1.489a72.452 72.452 0 0 0-.078-2.618c0-.155-.045-.733-.137-1.765a18.619 18.619 0 0 1-.052-1.634.612.612 0 0 0-.173-.487.672.672 0 0 0-.489-.217.634.634 0 0 0-.447.183.627.627 0 0 0-.208.459c-.023.481-.006 1.09.052 1.81.079 1.049.126 1.62.136 1.694.045.945.073 2.566.084 4.819l.01.146a8.865 8.865 0 0 0-.366 2.557l.001 1.185c.035.618.156 1.083.364 1.412a.614.614 0 0 0 .351.297.667.667 0 0 0 .663-.133.728.728 0 0 0 .186-.3c.017-.051.025-.103.019-.103l-.002.001a.44.44 0 0 0 .022-.169v-.001c.354.054.703.081 1.039.081a5.587 5.587 0 0 0 2.934-.805 4.564 4.564 0 0 0 1.653-1.761c.378-.72.545-1.561.498-2.499-.07-1.528-.509-2.613-1.302-3.226-.278-.215-.641-.355-1.083-.417zm-3.679 4.121c.25-.75.623-1.381 1.109-1.879.478-.488 1.082-.801 1.807-.931.087-.021.183-.031.283-.031.094 0 .19.008.293.025.266.044.393.103.446.14.481.368.752 1.125.806 2.248.065 1.396-.432 2.399-1.519 3.066-.464.28-.993.469-1.577.56a4.918 4.918 0 0 1-.778.061c-.284 0-.576-.024-.869-.071a81.324 81.324 0 0 0-.001-3.188zM183.612 7.585c-.142-.122-.305-.184-.542-.184h-.012a.735.735 0 0 0-.519.265.729.729 0 0 0-.185.543c.215 3.054.323 5.389.323 6.939 0 .214.074.396.22.541.146.146.328.22.541.22s.395-.074.541-.22.221-.328.221-.541c0-1.598-.109-3.964-.324-7.035a.737.737 0 0 0-.264-.528zM183.318 6.493a.738.738 0 0 0 .22-.541l-.001-.038.124-.13.318-.52a.62.62 0 0 0 .089-.495.642.642 0 0 0-.292-.414.645.645 0 0 0-.5-.085.626.626 0 0 0-.407.291 2.656 2.656 0 0 0-.15.234.657.657 0 0 1-.061.103c-.031.043-.051.08-.04.08l-.08.075a1.544 1.544 0 0 0-.124.112 2.201 2.201 0 0 1-.152.136.64.64 0 0 0-.18.319.853.853 0 0 0-.066.333c0 .213.074.395.22.541.146.146.329.22.542.22s.394-.075.54-.221zM187.669 2.688a.773.773 0 0 0-.249-.578.807.807 0 0 0-.572-.234.765.765 0 0 0-.57.25.804.804 0 0 0-.232.568c.057 2.023.078 4.389.067 7.031-.011 2.632-.113 4.977-.305 6.974a.79.79 0 0 0 .189.576.79.79 0 0 0 .628.297.775.775 0 0 0 .504-.185.837.837 0 0 0 .301-.553 67.124 67.124 0 0 0 .29-5.821c.011-1.185.017-2.039.017-2.561 0-.521-.011-1.557-.033-3.105a307.032 307.032 0 0 1-.035-2.659zM191.087 6.493a.738.738 0 0 0 .22-.541l-.001-.038.124-.13.318-.52a.62.62 0 0 0 .089-.495.639.639 0 0 0-.292-.414.643.643 0 0 0-.5-.085.626.626 0 0 0-.406.291 2.656 2.656 0 0 0-.15.234.748.748 0 0 1-.061.103c-.031.043-.052.08-.041.08l-.08.075a1.601 1.601 0 0 0-.123.112 2.201 2.201 0 0 1-.152.136.64.64 0 0 0-.18.319.835.835 0 0 0-.066.333c0 .213.074.395.219.541.146.146.329.22.542.22s.393-.075.54-.221zM191.381 7.585c-.141-.122-.305-.184-.541-.184h-.012c-.208.016-.383.105-.52.265s-.199.343-.184.543c.215 3.055.322 5.389.322 6.939 0 .214.074.396.221.541.146.146.328.22.541.22s.395-.074.541-.22a.738.738 0 0 0 .22-.541c0-1.598-.108-3.964-.323-7.035a.738.738 0 0 0-.265-.528zM199.904 9.749a27.494 27.494 0 0 0-2.721-.218 206.036 206.036 0 0 0-.148-4.29.758.758 0 0 0-.254-.525.757.757 0 0 0-.537-.196h-.004a.715.715 0 0 0-.522.245.766.766 0 0 0-.204.533c.074 1.717.129 3.128.164 4.232-.756.017-1.516.067-2.257.15a.713.713 0 0 0-.524.27.73.73 0 0 0-.162.556.737.737 0 0 0 .277.507.69.69 0 0 0 .442.161l.103-.007a27.766 27.766 0 0 1 2.145-.132 70.973 70.973 0 0 1-.12 4.642c0 .209.069.392.204.542.14.154.316.236.523.244l.033.001a.743.743 0 0 0 .509-.197.753.753 0 0 0 .253-.51c.086-1.427.121-3.013.104-4.719.836.027 1.68.093 2.504.196l.119.009c.156 0 .304-.05.438-.147a.705.705 0 0 0 .294-.505.774.774 0 0 0-.147-.556.683.683 0 0 0-.512-.286zM203.904 6.493a.74.74 0 0 0 .221-.541l-.002-.038.125-.13.318-.52a.619.619 0 0 0 .088-.495.641.641 0 0 0-.291-.414.645.645 0 0 0-.5-.085.628.628 0 0 0-.408.291 2.413 2.413 0 0 0-.149.234.867.867 0 0 1-.061.103c-.031.043-.052.08-.04.08l-.08.075a1.98 1.98 0 0 0-.125.112c-.04.041-.086.081-.152.136a.638.638 0 0 0-.179.319.854.854 0 0 0-.067.333c0 .213.074.395.221.541s.328.22.541.22.394-.075.54-.221zM204.199 7.585a.774.774 0 0 0-.542-.184h-.012a.733.733 0 0 0-.519.265.729.729 0 0 0-.185.543c.214 3.055.323 5.389.323 6.939 0 .214.074.396.219.541.146.146.328.22.541.22s.396-.074.542-.22a.738.738 0 0 0 .22-.541c0-1.598-.109-3.964-.323-7.035a.74.74 0 0 0-.264-.528zM213.412 13.879a5.428 5.428 0 0 0-.123-.008.756.756 0 0 0-.455.147c-.528.385-.977.651-1.335.792-.312.127-.694.191-1.138.191l-.103-.001c-.689-.032-1.238-.213-1.633-.541-.338-.28-.58-.64-.721-1.071 1.963-.206 3.535-1.017 4.676-2.415.551-.685.74-1.335.562-1.936-.166-.536-.584-.933-1.249-1.184a4.557 4.557 0 0 0-1.47-.233l-.111.001c-.564.012-1.057.096-1.465.252-.774.31-1.404.864-1.873 1.647a5.54 5.54 0 0 0-.771 2.344.744.744 0 0 0-.365.185.717.717 0 0 0-.244.534.736.736 0 0 0 .196.565.713.713 0 0 0 .485.251l.012.004a4.042 4.042 0 0 0 1.215 2.171c.662.615 1.572.945 2.702.98.1.005.198.007.294.007.584 0 1.107-.093 1.552-.277.505-.208 1.075-.542 1.692-.987a.73.73 0 0 0 .325-.522.81.81 0 0 0-.136-.584.737.737 0 0 0-.519-.312zm-3.017-4.889h.002v.196c.355 0 .678.05.953.149.25.095.289.164.289.164 0 .003.014.121-.289.476-.855 1.061-2.053 1.68-3.561 1.842a3.844 3.844 0 0 1 .521-1.468c.305-.498.684-.839 1.129-1.015.225-.092.529-.141.904-.146l.052-.198zM217.652 9.773a4.407 4.407 0 0 1 1.006-.504c.281-.094.514-.143.775-.143h.037c.329.014.425.059.461.081.041.021.112.067.211.136l.442.323a.708.708 0 0 0 .564.128c.199-.038.361-.145.483-.32s.165-.366.126-.569a.727.727 0 0 0-.324-.479l-.388-.287a2.637 2.637 0 0 0-.383-.255c-.253-.139-.601-.23-1.069-.279l-.15-.004c-.361 0-.773.076-1.227.227a5.809 5.809 0 0 0-1.418.697c-.482.33-.884.725-1.191 1.174-.324.473-.438.987-.338 1.524.137.771.818 1.411 2.027 1.902.229.092.635.235 1.215.428.406.144.684.253.821.328.438.235.53.394.524.422-.019.042-.076.133-.26.284a2.047 2.047 0 0 1-.615.324c-.314.12-.662.213-1.033.279a4.89 4.89 0 0 1-.555.049l-.666.036a.815.815 0 0 0-.492.268.693.693 0 0 0-.178.555.776.776 0 0 0 .261.51c.14.125.306.188.495.188l.086-.005a1.23 1.23 0 0 1 .164-.022c.063-.005.135-.008.213-.008a.763.763 0 0 0 .204-.017c.283-.012.519-.036.705-.071a8.057 8.057 0 0 0 1.312-.333c.961-.36 1.562-.876 1.787-1.539a1.53 1.53 0 0 0-.146-1.285c-.229-.382-.602-.71-1.107-.975-.201-.106-.537-.244-1.034-.421-.551-.18-.927-.309-1.125-.386-.919-.378-1.097-.655-1.12-.784-.024-.138.033-.304.176-.504.142-.225.386-.451.724-.673z"/></g></svg>