<?xml version="1.0" encoding="utf-8"?><svg xmlns="http://www.w3.org/2000/svg" width="90" height="90"><path fill="#FFF" d="M0 0h90v90H0z"/><path fill="#43195F" d="M.717 83.312A.72.72 0 0 1 0 82.596V71.083c0-.396.322-.717.717-.717h2.549c.395 0 1.038.038 1.429.085 0 0 1.444.172 2.343.685.897.513 1.599 1.241 2.103 2.188s.756 2.02.756 3.223c0 .328-.035.917-.078 1.311 0 0-.17 1.561-.665 2.496a5.297 5.297 0 0 1-2.094 2.178c-.9.517-1.917.777-3.049.783H.717v-.003zm2.667-10.787a.72.72 0 0 0-.717.718v7.209c0 .394.29.716.645.716s.962-.059 1.35-.13c0 0 1.136-.211 1.687-.892.552-.684.833-1.657.845-2.926 0-.378-.037-1.007-.084-1.396 0 0-.188-1.602-.734-2.279-.545-.679-1.342-1.02-2.392-1.02h-.6zM18.585 82.596a.72.72 0 0 1-.718.717h-1.233a.718.718 0 0 1-.717-.717V71.083c0-.396.322-.717.717-.717h1.233c.395 0 .718.321.718.717v11.513zM29.548 79.415c.113.377.3.378.413 0l2.52-8.362c.114-.378.53-.687.924-.687h1.536c.395 0 .61.305.481.677l-4.036 11.591c-.13.372-.559.679-.953.679h-1.349c-.395 0-.822-.307-.951-.679l-4.021-11.591c-.129-.372.089-.677.482-.677h1.527c.395 0 .809.31.923.687l2.504 8.362zM43.626 82.596a.718.718 0 0 1-.716.717h-1.234a.718.718 0 0 1-.717-.717V71.083c0-.396.322-.717.717-.717h1.234c.394 0 .716.321.716.717v11.513zM50.729 83.312a.719.719 0 0 1-.717-.717V71.083c0-.396.322-.717.717-.717h2.551c.395 0 1.037.038 1.429.085 0 0 1.442.172 2.343.685a5.367 5.367 0 0 1 2.104 2.188c.505.945.757 2.02.757 3.223 0 .328-.035.917-.078 1.311 0 0-.17 1.561-.664 2.496a5.303 5.303 0 0 1-2.094 2.178c-.901.517-1.919.777-3.05.783H50.73v-.003zm2.667-10.787a.72.72 0 0 0-.717.718v7.209c0 .394.288.716.645.716a9.09 9.09 0 0 0 1.35-.13s1.137-.211 1.688-.892c.553-.684.832-1.657.846-2.926 0-.378-.038-1.007-.084-1.396 0 0-.188-1.602-.732-2.279-.547-.679-1.344-1.02-2.393-1.02h-.603zM73.549 76.984a.718.718 0 0 1-.717.717h-3.688a.72.72 0 0 0-.719.717v2.034c0 .394.322.716.719.716h4.576c.395 0 .717.323.717.717v.711a.718.718 0 0 1-.717.717h-7.244a.718.718 0 0 1-.718-.717V71.083c0-.396.322-.717.718-.717h7.227c.395 0 .717.321.717.717v.728a.718.718 0 0 1-.717.717h-4.559a.72.72 0 0 0-.719.718v1.651c0 .395.322.715.719.715h3.688a.72.72 0 0 1 .717.719v.653zM85.036 79.211c-.181-.352-.649-.639-1.044-.639h-.69a.718.718 0 0 0-.717.717v3.307a.72.72 0 0 1-.718.717h-1.232a.72.72 0 0 1-.718-.717V71.083c0-.396.323-.717.718-.717h3.375c.396 0 1.038.041 1.43.09 0 0 1.996.251 2.826.933s1.246 1.646 1.246 2.891c0 .884-.191 1.619-.574 2.209-.383.591-.961 1.061-1.736 1.408l2.465 4.656c.183.347.333.662.333.696s-.323.062-.718.062h-1.429c-.396 0-.865-.287-1.045-.639l-1.772-3.461zm-2.451-3.516c0 .395.322.717.717.717h.718a12.1 12.1 0 0 0 1.426-.102s.479-.069.849-.41c.368-.342.554-.812.554-1.409 0-.61-.176-1.091-.521-1.44-.348-.35-.879-.523-1.596-.523h-1.428a.718.718 0 0 0-.717.718l-.002 2.449z"/><g><path fill="#CD0065" d="M48.924 5.032h21.9L59.874 24l-10.95 18.967L37.974 24 27.023 5.032z"/><path fill="#FFC20C" d="M71 5.027c-10.493 0-19 8.494-19 18.974s8.507 18.973 19 18.973 19-8.493 19-18.973H71V5.027z"/><path fill="#1DAFC2" d="M27.023 5.04v-.008h-.271c-.081-.001-.161-.006-.243-.006C16.03 5.026 7.535 13.521 7.535 24h-7.5c0 10.479 8.494 18.973 18.974 18.973 10.478 0 18.973-8.493 18.973-18.973h7.5c0-10.307-8.218-18.687-18.459-18.96z"/><path fill="#43195F" d="M37.974 24h7.509c0-10.307-8.217-18.686-18.455-18.96L37.974 24z"/></g><g><path fill="#43195F" d="M8.717 59.005a1.316 1.316 0 0 1-.573-2.5l14.481-6.979c.36-.174.781-.174 1.142 0l13.911 6.705 13.908-6.705a1.317 1.317 0 0 1 1.143 0l13.91 6.705 13.907-6.705a1.313 1.313 0 1 1 1.142 2.367l-14.479 6.981a1.317 1.317 0 0 1-1.143 0l-13.908-6.705-13.908 6.705c-.36.174-.781.174-1.142 0l-13.911-6.705-13.911 6.705a1.3 1.3 0 0 1-.569.131z"/></g></svg>