<?xml version="1.0" encoding="utf-8"?><svg xmlns="http://www.w3.org/2000/svg" width="1270" height="370"><path fill="none" stroke="#FFF" stroke-width="3" stroke-miterlimit="10" d="M162.32 248.594l-77.662 4.35c-.011.002-.02-.002-.026-.002L22.5 256.424V370h1236V141.328l-94.257 5.281a15.603 15.603 0 0 0 1.207-6.011c0-8.395-6.804-14.813-15.197-14.345l-280.762 15.733c-.037.003-.071.016-.109.018l-77.663 4.351c-.01.001-.019-.001-.023-.001l-70.972 3.976c-2.007.112-3.636-1.425-3.636-3.434 0-2.006 1.63-3.727 3.636-3.838l77.662-4.348.021.001 12.025-.675a32.404 32.404 0 0 1-.319-4.595c0-18.234 14.779-33.843 33.013-34.863L1258.5 75.303V48.682c0-14.01-11.355-24.729-25.365-23.946L47.864 91.125C33.856 91.908 22.5 103.9 22.5 117.908v12.303l165.515-9.271c4.458-.248 8.075 3.163 8.075 7.622s-3.616 8.274-8.075 8.525L22.5 146.354v13.564l25.316-1.418a8.208 8.208 0 0 0-.374 2.45c0 4.459 3.614 7.869 8.073 7.62l172.434-9.656c4.458-.25 8.072-4.066 8.072-8.524a7.81 7.81 0 0 0-.374-2.408l69.844-3.912c8.394-.471 15.198 5.952 15.198 14.346s-6.805 15.58-15.198 16.053L22.5 190.314v58.838l68.824-3.854h.017l70.979-3.976c2.007-.11 3.635 1.426 3.635 3.434-.001 2.008-1.628 3.726-3.635 3.838z"/><path fill="#FFF" d="M143.666 230.057l-79.799 4.469c-.012.004-.021-.002-.027-.002L0 238.104v131.812h1270V119.843l-96.85 5.424a16.1 16.1 0 0 0 1.238-6.175c0-8.625-6.989-15.221-15.614-14.741l-287.931 16.134c-.038.004-.072.017-.111.018l-79.802 4.472c-.009.001-.02-.001-.024-.001l-72.922 4.085c-2.062.114-3.733-1.464-3.733-3.528 0-2.061 1.674-3.829 3.733-3.943l79.799-4.468.021.001 12.357-.694a33.128 33.128 0 0 1-.329-4.721c0-18.735 15.188-34.774 33.921-35.822L1270 52.001V24.648c0-14.396-11.668-25.413-26.062-24.606L26.062 68.257C11.668 69.063 0 81.384 0 95.778v12.642l170.067-9.528c4.581-.253 8.297 3.251 8.297 7.833s-3.716 8.503-8.297 8.759L0 125.005v13.938l26.014-1.457a8.464 8.464 0 0 0-.384 2.518c0 4.581 3.714 8.086 8.295 7.829l177.176-9.921c4.581-.256 8.295-4.178 8.295-8.759 0-.869-.135-1.7-.384-2.473l71.765-4.021c8.625-.481 15.617 6.116 15.617 14.741 0 8.624-6.992 16.008-15.617 16.493L0 170.175v60.457l70.717-3.961.018.001 72.933-4.085c2.062-.112 3.733 1.466 3.733 3.526 0 2.064-1.672 3.828-3.735 3.944z"/></svg>