<?xml version="1.0" encoding="utf-8"?><svg xmlns:xlink="http://www.w3.org/1999/xlink" id="underline_red" image-rendering="auto" baseProfile="basic" version="1.1" x="0px" y="0px" width="350" height="32" xmlns="http://www.w3.org/2000/svg"><defs><symbol id="m" overflow="visible"><path fill="#F00" d="M174.95,28.25L174.95,-28.1 -175.05,-28.1 -175.05,28.25 174.95,28.25"/>
</symbol></defs><g id="under_l1" overflow="visible" transform="matrix(1 0 0 1 175 16)"><g style="display:none;"><path fill="#CD0065" d="M31.6,-8L63,-9.25Q73.2,-9.6 92.45,-10.4L130.5,-12.25Q134.2,-12.45 141.05,-12.9L173.15,-15.35 92.3,-14.9Q66.8,-14.65 62.85,-14.55 42.1,-14.2 31.35,-13.8 28.2,-13.7 -1.15,-12.5 -28,-10.8 -33.65,-10.3 -40.55,-9.8 -49.55,-8.9 -59.95,-7.75 -65.05,-7.2 -67.75,-6.95 -72.65,-6.25L-80.05,-5.25Q-90.55,-3.85 -94.3,-3.15L-131.85,4 -151.2,8.8Q-152.85,9.2 -155.15,9.95L-173.1,15.4 -169.3,14.55Q-159.25,12.35 -158.45,12.15L-150.75,10.5 -107.15,3.05 -93.7,1.25Q-92.05,1 -79.4,-0.4 -77.45,-0.6 -72.05,-1.2 -67.35,-1.75 -64.5,-1.95L-33.2,-4.5Q-26.7,-5.05 -17.1,-5.6 -11.7,-5.9 -0.85,-6.5 23.6,-7.75 31.6,-8"/><animate attributeName="display" fill="freeze" repeatCount="1" dur="5.792s" keyTimes="0;0.719;0.849;1" values="none;inline;none;none"/><animate attributeName="mask" repeatCount="1" dur="5.792s" keyTimes="0;0.719;0.849;1" values="none;url(#mask_1);none;none" fill="freeze"/></g><mask id="mask_1"><g style="display:none;"><g id="m" transform="matrix(1 0 0 1 -342.949 4.5)"><animateTransform attributeName="transform" additive="replace" type="translate" dur="5.792s" keyTimes="0;0.719;0.727;0.734;0.741;0.748;0.755;0.763;0.77;0.777;0.784;0.791;0.799;0.806;0.813;0.82;0.827;0.834;0.842;1" values="-342.949,4.5;-342.949,4.5;-307.799,4.5;-274.549,4.5;-243.199,4.5;-213.749,4.5;-186.199,4.5;-160.549,4.5;-136.749,4.5;-114.899,4.5;-94.949,4.5;-76.899,4.5;-60.749,4.5;-46.499,4.5;-34.149,4.5;-23.699,4.5;-15.149,4.5;-8.499,4.5;-3.749,4.5;-3.749,4.5" calcMode="discrete" fill="freeze"/><path fill="#FFF" d="M174.95,28.25L174.95,-28.1 -175.05,-28.1 -175.05,28.25 174.95,28.25" fill-opacity="1"/></g><animate attributeName="display" fill="freeze" repeatCount="1" dur="5.792s" keyTimes="0;0.719;0.849;1" values="none;inline;none;none"/></g></mask><g style="display:none;"><path fill="#CD0065" d="M30.85,-8.9Q14.7,-8.55 6.4,-8.15 1.05,-7.9 -18.8,-6.75 -37.65,-5.3 -44,-4.65 -50.2,-4.15 -68.3,-1.95 -72.5,-1.45 -79.9,-0.4 -90.1,1.1 -90.95,1.25L-101.4,2.95Q-108.05,4.15 -111.15,4.7 -119.8,6.35 -120.1,6.4L-128.15,8.15Q-136.8,10.05 -141.15,11.2 -147.55,12.85 -149.45,13.3L-152.4,14.1 -140.9,12.35Q-137.9,11.85 -127.75,10.45L-110.6,8.1Q-104.35,7.25 -90.35,5.65 -86.6,5.2 -79.3,4.5 -77.8,4.35 -73.55,3.9 -69.9,3.45 -67.7,3.3L-43.45,1.1Q-35.2,0.35 -18.4,-0.8 1.3,-2.1 6.7,-2.35 10.8,-2.55 12.85,-2.7L74.2,-5.25 116.4,-6.5 104.8,-7.35Q98.4,-7.8 91.5,-8.05L74.2,-8.7Q64.7,-9 53.7,-9 40.8,-9.1 30.85,-8.9"/><animate attributeName="display" fill="freeze" repeatCount="1" dur="5.792s" keyTimes="0;0.813;0.906;1" values="none;inline;none;none"/><animate attributeName="mask" repeatCount="1" dur="5.792s" keyTimes="0;0.813;0.906;1" values="none;url(#mask_);none;none" fill="freeze"/></g><mask id="mask_"><g style="display:none;"><g id="m" transform="matrix(1 0 0 1 283.75 -0.199)"><animateTransform attributeName="transform" additive="replace" type="translate" dur="5.792s" keyTimes="0;0.813;0.82;0.827;0.834;0.842;0.849;0.856;0.863;0.87;0.878;0.885;0.892;0.899;1" values="283.75,-0.199;283.75,-0.199;247.7,0.9;214.3,1.9;183.55,2.8;155.5,3.65;130.15,4.4;107.45,5.1;87.4,5.7;70.05,6.2;55.35,6.65;43.3,7;33.95,7.3;27.3,7.5;27.3,7.5" calcMode="discrete" fill="freeze"/><path fill="#FFF" d="M174.95,28.25L174.95,-28.1 -175.05,-28.1 -175.05,28.25 174.95,28.25" fill-opacity="1"/></g><animate attributeName="display" fill="freeze" repeatCount="1" dur="5.792s" keyTimes="0;0.813;0.906;1" values="none;inline;none;none"/></g></mask><g style="display:none;"><path fill="#CD0065" d="M31.6,-8L63,-9.25Q73.2,-9.6 92.45,-10.4L130.5,-12.25Q134.2,-12.45 141.05,-12.9L173.15,-15.35 92.3,-14.9Q66.8,-14.65 62.85,-14.55 42.1,-14.2 31.35,-13.8 28.2,-13.7 -1.15,-12.5 -28,-10.8 -33.65,-10.3 -40.55,-9.8 -49.55,-8.9 -59.95,-7.75 -65.05,-7.2 -67.75,-6.95 -72.65,-6.25L-80.05,-5.25Q-90.55,-3.85 -94.3,-3.15L-131.85,4 -151.2,8.8Q-152.85,9.2 -155.15,9.95L-173.1,15.4 -169.3,14.55Q-159.25,12.35 -158.45,12.15L-150.75,10.5 -107.15,3.05 -93.7,1.25Q-92.05,1 -79.4,-0.4 -77.45,-0.6 -72.05,-1.2 -67.35,-1.75 -64.5,-1.95L-33.2,-4.5Q-26.7,-5.05 -17.1,-5.6 -11.7,-5.9 -0.85,-6.5 23.6,-7.75 31.6,-8"/><animate attributeName="display" fill="freeze" repeatCount="1" dur="5.792s" keyTimes="0;0.849;1" values="none;inline;inline"/></g><g style="display:none;"><path fill="#CD0065" d="M30.85,-8.9Q14.7,-8.55 6.4,-8.15 1.05,-7.9 -18.8,-6.75 -37.65,-5.3 -44,-4.65 -50.2,-4.15 -68.3,-1.95 -72.5,-1.45 -79.9,-0.4 -90.1,1.1 -90.95,1.25L-101.4,2.95Q-108.05,4.15 -111.15,4.7 -119.8,6.35 -120.1,6.4L-128.15,8.15Q-136.8,10.05 -141.15,11.2 -147.55,12.85 -149.45,13.3L-152.4,14.1 -140.9,12.35Q-137.9,11.85 -127.75,10.45L-110.6,8.1Q-104.35,7.25 -90.35,5.65 -86.6,5.2 -79.3,4.5 -77.8,4.35 -73.55,3.9 -69.9,3.45 -67.7,3.3L-43.45,1.1Q-35.2,0.35 -18.4,-0.8 1.3,-2.1 6.7,-2.35 10.8,-2.55 12.85,-2.7L74.2,-5.25 116.4,-6.5 104.8,-7.35Q98.4,-7.8 91.5,-8.05L74.2,-8.7Q64.7,-9 53.7,-9 40.8,-9.1 30.85,-8.9"/><animate attributeName="display" fill="freeze" repeatCount="1" dur="5.792s" keyTimes="0;0.906;1" values="none;inline;inline"/></g></g></svg>