<?xml version="1.0" encoding="utf-8"?><svg xmlns="http://www.w3.org/2000/svg" width="176" height="10"><path fill="#1dafc2" d="M6.32 3.08l1.7-.13c1.1-.08 2.72-.24 4.78-.34l7.44-.42c2.88-.17 6.12-.35 9.66-.44l11.41-.37c4.05-.13 8.33-.3 12.75-.33C58.48 1 63.04.87 67.69.89L81.75.87l14.08.3c4.64.09 9.21.3 13.63.44 4.42.11 8.7.37 12.74.58l11.42.6c3.53.15 6.77.4 9.64.63l7.43.57c2.06.14 3.67.33 4.77.43l1.7.16-.01.3-75.41-1.01-75.42-.49v-.3z"/><path fill="#1dafc2" d="M.87 8.83l1.96-.18c1.27-.1 3.14-.3 5.52-.46l8.59-.61a358 358 0 0 1 11.13-.7l13.18-.67c4.68-.24 9.61-.52 14.72-.67 5.1-.16 10.37-.42 15.73-.53l16.26-.42 16.25-.25a522 522 0 0 1 15.76-.02c5.1.01 10.04.16 14.73.3 4.68.13 9.12.3 13.19.38 4.08.05 7.82.22 11.14.37 3.31.1 6.2.14 8.59.2 2.38.03 4.26.15 5.54.19l1.96.07.01.3-7.48.25c-2.39.07-5.28.19-8.6.26l-11.15.13-27.9.18c-5.11.02-10.39.16-15.75.28L88 7.59.87 9.13v-.3z"/></svg>
