<?xml version="1.0" encoding="utf-8"?><svg xmlns="http://www.w3.org/2000/svg" width="50" height="144"><linearGradient id="a" gradientUnits="userSpaceOnUse" x1="2326.967" y1="-3542.137" x2="2299.96" y2="-3542.137" gradientTransform="matrix(1 0 0 -1 -2279 -3507.5)"><stop offset="0" stop-color="#ffc20b"/><stop offset=".605" stop-color="#ffa903"/><stop offset="1" stop-color="#ff9f00"/></linearGradient><path fill="url(#a)" d="M22.472,67.274c-0.836-0.001-1.513-0.68-1.512-1.517c0-0.063,0.004-0.127,0.013-0.19l6.904-52.577 c0.064-0.47,0.343-0.886,0.754-1.119l17.084-9.644c0.709-0.438,1.64-0.219,2.079,0.489c0.438,0.711,0.218,1.643-0.493,2.081 c-0.033,0.021-0.068,0.041-0.105,0.059L30.771,14.13l-6.807,51.828C23.868,66.71,23.229,67.273,22.472,67.274L22.472,67.274z"/><linearGradient id="b" gradientUnits="userSpaceOnUse" x1="2293.402" y1="-3571.32" x2="2308.048" y2="-3571.32" gradientTransform="matrix(1 0 0 -1 -2279 -3507.5)"><stop offset="0" stop-color="#0777bd"/><stop offset="1" stop-color="#1daec2"/></linearGradient><path fill="url(#b)" d="M28.352,58.628c-0.457-0.465-1.078-0.73-1.73-0.739l-9.631-0.103 c-1.357-0.012-2.468,1.075-2.485,2.432l-0.102,9.48l14.546,0.155l0.1-9.481C29.06,59.721,28.809,59.093,28.352,58.628z"/><linearGradient id="c" gradientUnits="userSpaceOnUse" x1="2280.981" y1="-3589.709" x2="2319.559" y2="-3589.709" gradientTransform="matrix(1 0 0 -1 -2279 -3507.5)"><stop offset="0" stop-color="#1daec2"/><stop offset="1" stop-color="#097dbe"/></linearGradient><path fill="url(#c)" d="M27.96,69.685l-12.922-0.139c-5.074-0.055-9.231,4.014-9.286,9.087l0,0v0.003l-0.045,4.201 l0.369,0.002c-2.192-0.023-3.988,1.734-4.012,3.926l0,0L1.98,94.463l38.494,0.41l0.084-7.695c0.023-2.189-1.729-3.985-3.92-4.014 h-0.005l0.369,0.004l0.046-4.2c0.057-5.069-4.006-9.226-9.076-9.283C27.969,69.685,27.965,69.685,27.96,69.685"/><linearGradient id="d" gradientUnits="userSpaceOnUse" x1="2280.981" y1="-3625.733" x2="2319.481" y2="-3625.733" gradientTransform="matrix(1 0 0 -1 -2279 -3507.5)"><stop offset="0" stop-color="#0777bd"/><stop offset="1" stop-color="#1daec2"/></linearGradient><path fill="url(#d)" d="M1.981,94.468l4.373,44.357c0.164,1.653,1.545,2.919,3.207,2.938l22.331,0.235 c1.664,0.019,3.074-1.217,3.274-2.868l5.313-44.255L1.981,94.468z"/><path fill="#D3D5E6" d="M37.045,79.272l-0.042,3.932L5.71,82.868l0.042-3.93c0.001-0.196,0.01-0.392,0.026-0.586l31.256,0.334 C37.043,78.879,37.048,79.071,37.045,79.272 M1.99,94.474l0.049-4.514l38.502,0.421l-0.05,4.513L1.99,94.474z"/><path fill="#FFC20C" d="M39.921,103.493c-1.521-0.844-3.229-1.295-4.968-1.312c-5.79-0.066-10.533,4.584-10.596,10.377 c-0.062,5.791,4.584,10.531,10.375,10.596c0.964,0.012,1.924-0.113,2.854-0.369L39.921,103.493z"/></svg>